<?xml version="1.0" encoding="UTF-8" standalone="no"?>
<!DOCTYPE svg PUBLIC "-//W3C//DTD SVG 1.1//EN"
 "http://www.w3.org/Graphics/SVG/1.1/DTD/svg11.dtd">
<!-- Generated by graphviz version 2.44.0 (0)
 -->
<!-- Title: multi_fragment_plan Pages: 1 -->
<svg width="237pt" height="620pt"
 viewBox="0.00 0.00 237.00 620.00" xmlns="http://www.w3.org/2000/svg" xmlns:xlink="http://www.w3.org/1999/xlink">
<g id="graph0" class="graph" transform="scale(1 1) rotate(0) translate(4 616)">
<title>multi_fragment_plan</title>
<polygon fill="white" stroke="transparent" points="-4,4 -4,-616 233,-616 233,4 -4,4"/>
<!-- fragment_0 -->
<g id="node1" class="node">
<title>fragment_0</title>
<polygon fill="#ede3d9" stroke="transparent" points="28.5,-62.5 28.5,-93.5 201.5,-93.5 201.5,-62.5 28.5,-62.5"/>
<text text-anchor="start" x="36.5" y="-74.3" font-family="Helvetica" font-size="14.00">out: broadcast  ~5 rows    </text>
<polygon fill="#ccd5c4" stroke="transparent" points="28.5,-31.5 28.5,-62.5 201.5,-62.5 201.5,-31.5 28.5,-31.5"/>
<text text-anchor="start" x="36.5" y="-44.3" font-family="Helvetica" font-weight="bold" font-size="14.00">fragment6 — SOURCE</text>
<text text-anchor="start" x="36.5" y="-12.3" font-family="Helvetica" font-size="14.00">TableScan: tiny.region</text>
<polygon fill="none" stroke="#1c2915" points="27,0 27,-95 202,-95 202,0 27,0"/>
</g>
<!-- fragment_1 -->
<g id="node2" class="node">
<title>fragment_1</title>
<polygon fill="#ede3d9" stroke="transparent" points="1.5,-287 1.5,-318 228.5,-318 228.5,-287 1.5,-287"/>
<text text-anchor="start" x="9.5" y="-298.8" font-family="Helvetica" font-size="14.00">out: hash[r_name]  ~5 rows    </text>
<polygon fill="#ccd5c4" stroke="transparent" points="1.5,-256 1.5,-287 228.5,-287 228.5,-256 1.5,-256"/>
<text text-anchor="start" x="9.5" y="-268.8" font-family="Helvetica" font-weight="bold" font-size="14.00">fragment5 — SOURCE</text>
<text text-anchor="start" x="9.5" y="-236.8" font-family="Helvetica" font-size="14.00">Aggregation</text>
<text text-anchor="start" x="9.5" y="-205.8" font-family="Helvetica" font-size="14.00">  HashJoin</text>
<text text-anchor="start" x="9.5" y="-174.8" font-family="Helvetica" font-size="14.00">    TableScan: tiny.nation</text>
<text text-anchor="start" x="9.5" y="-143.8" font-family="Helvetica" font-size="14.00">    Exchange: fragment6, broadcast</text>
<polygon fill="none" stroke="#1c2915" points="0,-131 0,-319 229,-319 229,-131 0,-131"/>
</g>
<!-- fragment_0&#45;&gt;fragment_1 -->
<g id="edge1" class="edge">
<title>fragment_0&#45;&gt;fragment_1</title>
<path fill="none" stroke="#727a6b" d="M114.5,-95.07C114.5,-103.11 114.5,-111.75 114.5,-120.61"/>
<polygon fill="#727a6b" stroke="#727a6b" points="111,-120.68 114.5,-130.68 118,-120.68 111,-120.68"/>
</g>
<!-- fragment_2 -->
<g id="node3" class="node">
<title>fragment_2</title>
<polygon fill="#ede3d9" stroke="transparent" points="16.5,-479.5 16.5,-510.5 213.5,-510.5 213.5,-479.5 16.5,-479.5"/>
<text text-anchor="start" x="24.5" y="-491.3" font-family="Helvetica" font-size="14.00">out: gather  ~5 rows    </text>
<polygon fill="#ccd5c4" stroke="transparent" points="16.5,-448.5 16.5,-479.5 213.5,-479.5 213.5,-448.5 16.5,-448.5"/>
<text text-anchor="start" x="24.5" y="-461.3" font-family="Helvetica" font-weight="bold" font-size="14.00">fragment4 — FIXED × 4</text>
<text text-anchor="start" x="24.5" y="-429.3" font-family="Helvetica" font-size="14.00">Aggregation</text>
<text text-anchor="start" x="24.5" y="-398.3" font-family="Helvetica" font-size="14.00">  LocalPartition</text>
<text text-anchor="start" x="24.5" y="-367.3" font-family="Helvetica" font-size="14.00">    Exchange: fragment5, hash</text>
<polygon fill="none" stroke="#1c2915" points="15,-355 15,-512 214,-512 214,-355 15,-355"/>
</g>
<!-- fragment_1&#45;&gt;fragment_2 -->
<g id="edge2" class="edge">
<title>fragment_1&#45;&gt;fragment_2</title>
<path fill="none" stroke="#727a6b" d="M114.5,-319.28C114.5,-327.72 114.5,-336.24 114.5,-344.63"/>
<polygon fill="#727a6b" stroke="#727a6b" points="111,-344.77 114.5,-354.77 118,-344.77 111,-344.77"/>
</g>
<!-- fragment_3 -->
<g id="node4" class="node">
<title>fragment_3</title>
<polygon fill="#ccd5c4" stroke="transparent" points="19.5,-580 19.5,-611 210.5,-611 210.5,-580 19.5,-580"/>
<text text-anchor="start" x="27.5" y="-592.8" font-family="Helvetica" font-weight="bold" font-size="14.00">fragment3 — SINGLE</text>
<text text-anchor="start" x="27.5" y="-560.8" font-family="Helvetica" font-size="14.00">Exchange: fragment4, gather</text>
<polygon fill="none" stroke="#1c2915" points="18,-548 18,-612 211,-612 211,-548 18,-548"/>
</g>
<!-- fragment_2&#45;&gt;fragment_3 -->
<g id="edge3" class="edge">
<title>fragment_2&#45;&gt;fragment_3</title>
<path fill="none" stroke="#727a6b" d="M114.5,-512.25C114.5,-520.98 114.5,-529.61 114.5,-537.61"/>
<polygon fill="#727a6b" stroke="#727a6b" points="111,-537.73 114.5,-547.73 118,-537.73 111,-537.73"/>
</g>
</g>
</svg>
