<?xml version="1.0" encoding="UTF-8" standalone="no"?>
<!DOCTYPE svg PUBLIC "-//W3C//DTD SVG 1.1//EN"
 "http://www.w3.org/Graphics/SVG/1.1/DTD/svg11.dtd">
<!-- Generated by graphviz version 2.44.0 (0)
 -->
<!-- Title: QueryGraph Pages: 1 -->
<svg width="691pt" height="1350pt"
 viewBox="0.00 0.00 691.00 1350.00" xmlns="http://www.w3.org/2000/svg" xmlns:xlink="http://www.w3.org/1999/xlink">
<g id="graph0" class="graph" transform="scale(1 1) rotate(0) translate(4 1346)">
<title>QueryGraph</title>
<polygon fill="white" stroke="transparent" points="-4,4 -4,-1346 687,-1346 687,4 -4,4"/>
<g id="clust1" class="cluster">
<title>cluster_0</title>
<path fill="white" stroke="#1c2915" stroke-width="3" d="M20,-1079C20,-1079 312,-1079 312,-1079 318,-1079 324,-1085 324,-1091 324,-1091 324,-1322 324,-1322 324,-1328 318,-1334 312,-1334 312,-1334 20,-1334 20,-1334 14,-1334 8,-1328 8,-1322 8,-1322 8,-1091 8,-1091 8,-1085 14,-1079 20,-1079"/>
</g>
<g id="clust3" class="cluster">
<title>cluster_20</title>
<path fill="white" stroke="#1c2915" d="M31,-627C31,-627 323,-627 323,-627 329,-627 335,-633 335,-639 335,-639 335,-870 335,-870 335,-876 329,-882 323,-882 323,-882 31,-882 31,-882 25,-882 19,-876 19,-870 19,-870 19,-639 19,-639 19,-633 25,-627 31,-627"/>
</g>
<g id="clust5" class="cluster">
<title>cluster_30</title>
<path fill="white" stroke="#1c2915" d="M371,-325.5C371,-325.5 663,-325.5 663,-325.5 669,-325.5 675,-331.5 675,-337.5 675,-337.5 675,-573 675,-573 675,-579 669,-585 663,-585 663,-585 371,-585 371,-585 365,-585 359,-579 359,-573 359,-573 359,-337.5 359,-337.5 359,-331.5 365,-325.5 371,-325.5"/>
</g>
<g id="clust7" class="cluster">
<title>cluster_78</title>
<path fill="white" stroke="#1c2915" d="M47,-181C47,-181 339,-181 339,-181 345,-181 351,-187 351,-193 351,-193 351,-363 351,-363 351,-369 345,-375 339,-375 339,-375 47,-375 47,-375 41,-375 35,-369 35,-363 35,-363 35,-193 35,-193 35,-187 41,-181 47,-181"/>
</g>
<!-- dt0_header -->
<g id="node1" class="node">
<title>dt0_header</title>
<polygon fill="#ccd5c4" stroke="transparent" points="16,-1307 16,-1326 316,-1326 316,-1307 16,-1307"/>
<text text-anchor="start" x="158.5" y="-1315" font-family="Helvetica" font-weight="bold" font-size="10.00" fill="#1c2915">dt1</text>
<text text-anchor="start" x="20" y="-1295" font-family="Helvetica" font-size="10.00" fill="#1c2915">s_name := t2.s_name</text>
<text text-anchor="start" x="20" y="-1276" font-family="Helvetica" font-size="10.00" fill="#1c2915">s_address := t2.s_address</text>
<polygon fill="#ede3d9" stroke="transparent" points="16,-1250 16,-1269 316,-1269 316,-1250 16,-1250"/>
<text text-anchor="start" x="20" y="-1257" font-family="Helvetica" font-size="10.00" fill="#1c2915">ORDER BY: t2.s_name ASC NULLS LAST</text>
<polygon fill="#ede3d9" stroke="transparent" points="16,-1231 16,-1250 316,-1250 316,-1231 16,-1231"/>
<text text-anchor="start" x="20" y="-1238" font-family="Helvetica" font-size="10.00" fill="#1c2915">JOIN:</text>
<polygon fill="#ede3d9" stroke="transparent" points="16,-1212 16,-1231 316,-1231 316,-1212 16,-1212"/>
<text text-anchor="start" x="20" y="-1219" font-family="Helvetica" font-size="10.00" fill="#1c2915"> &#160;&#160;&#160;1. SEMI: t2.s_suppkey = dt4.ps_suppkey</text>
<polygon fill="#ede3d9" stroke="transparent" points="16,-1193 16,-1212 316,-1212 316,-1193 16,-1193"/>
<text text-anchor="start" x="20" y="-1200" font-family="Helvetica" font-size="10.00" fill="#1c2915"> &#160;&#160;&#160;2. t2.s_nationkey = t3.n_nationkey</text>
<polygon fill="#ede3d9" stroke="transparent" points="16,-1174 16,-1193 316,-1193 316,-1174 16,-1174"/>
<text text-anchor="start" x="20" y="-1181" font-family="Helvetica" font-size="10.00" fill="#1c2915">FILTER: dt1.__mark13</text>
</g>
<!-- dt0_t3 -->
<g id="node3" class="node">
<title>dt0_t3</title>
<ellipse fill="#af9d89" stroke="#1c2915" cx="177" cy="-1101.5" rx="14.5" ry="14.5"/>
<text text-anchor="middle" x="177" y="-1099" font-family="Helvetica" font-size="10.00" fill="#1c2915">t3</text>
</g>
<!-- dt0_header&#45;&gt;dt0_t3 -->
<!-- dt0_t2 -->
<g id="node2" class="node">
<title>dt0_t2</title>
<ellipse fill="#af9d89" stroke="#1c2915" cx="31" cy="-1101.5" rx="14.5" ry="14.5"/>
<text text-anchor="middle" x="31" y="-1099" font-family="Helvetica" font-size="10.00" fill="#1c2915">t2</text>
</g>
<!-- dt0_t2&#45;&gt;dt0_t3 -->
<g id="edge3" class="edge">
<title>dt0_t2&#45;&gt;dt0_t3</title>
<path fill="none" stroke="#727a6b" stroke-width="2" d="M44.39,-1107.28C87.6,-1125.67 96.07,-1125.13 162.84,-1105.65"/>
<text text-anchor="middle" x="91.78" y="-1123.46" font-family="Helvetica" font-size="9.00" fill="#1c2915">2</text>
</g>
<!-- dt0_dt4 -->
<g id="node4" class="node">
<title>dt0_dt4</title>
<path fill="#af9d89" stroke="#1c2915" d="M109.33,-1116C109.33,-1116 98.67,-1116 98.67,-1116 93.83,-1116 89,-1111.17 89,-1106.33 89,-1106.33 89,-1096.67 89,-1096.67 89,-1091.83 93.83,-1087 98.67,-1087 98.67,-1087 109.33,-1087 109.33,-1087 114.17,-1087 119,-1091.83 119,-1096.67 119,-1096.67 119,-1106.33 119,-1106.33 119,-1111.17 114.17,-1116 109.33,-1116"/>
<text text-anchor="middle" x="104" y="-1099" font-family="Helvetica" font-size="10.00" fill="#1c2915">dt4</text>
</g>
<!-- dt0_t2&#45;&gt;dt0_dt4 -->
<g id="edge2" class="edge">
<title>dt0_t2&#45;&gt;dt0_dt4</title>
<path fill="none" stroke="#727a6b" stroke-width="2" d="M44.58,-1107.13C56.37,-1111.56 63.2,-1111.91 79,-1108.18"/>
<polygon fill="#727a6b" stroke="#727a6b" stroke-width="2" points="79.96,-1111.54 88.78,-1105.68 78.23,-1104.76 79.96,-1111.54"/>
<text text-anchor="middle" x="63.93" y="-1113.22" font-family="Helvetica" font-size="9.00" fill="#1c2915">1</text>
</g>
<!-- node_8 -->
<g id="node5" class="node">
<title>node_8</title>
<polygon fill="#ccd5c4" stroke="transparent" points="126,-1008.5 126,-1027.5 228,-1027.5 228,-1008.5 126,-1008.5"/>
<text text-anchor="start" x="130" y="-1016.5" font-family="Helvetica" font-weight="bold" font-size="10.00" fill="#1c2915">t2 (&quot;tiny&quot;.&quot;supplier&quot;)</text>
<text text-anchor="start" x="130" y="-996.5" font-family="Helvetica" font-size="10.00" fill="#1c2915">s_suppkey</text>
<text text-anchor="start" x="130" y="-977.5" font-family="Helvetica" font-size="10.00" fill="#1c2915">s_name</text>
<text text-anchor="start" x="130" y="-958.5" font-family="Helvetica" font-size="10.00" fill="#1c2915">s_address</text>
<text text-anchor="start" x="130" y="-939.5" font-family="Helvetica" font-size="10.00" fill="#1c2915">s_nationkey</text>
<polygon fill="none" stroke="#1c2915" points="125,-932 125,-1029 229,-1029 229,-932 125,-932"/>
</g>
<!-- dt0_t3&#45;&gt;node_8 -->
<!-- node_17 -->
<g id="node6" class="node">
<title>node_17</title>
<polygon fill="#ccd5c4" stroke="transparent" points="274,-999.5 274,-1018.5 399,-1018.5 399,-999.5 274,-999.5"/>
<text text-anchor="start" x="294" y="-1007.5" font-family="Helvetica" font-weight="bold" font-size="10.00" fill="#1c2915">t3 (&quot;tiny&quot;.&quot;nation&quot;)</text>
<text text-anchor="start" x="278" y="-987.5" font-family="Helvetica" font-size="10.00" fill="#1c2915">n_nationkey</text>
<text text-anchor="start" x="278" y="-968.5" font-family="Helvetica" font-size="10.00" fill="#1c2915">n_name</text>
<polygon fill="#ede3d9" stroke="transparent" points="274,-942.5 274,-961.5 399,-961.5 399,-942.5 274,-942.5"/>
<text text-anchor="start" x="278" y="-949.5" font-family="Helvetica" font-size="10.00" fill="#1c2915">eq(t3.n_name, &quot;CANADA&quot;)</text>
<polygon fill="none" stroke="#1c2915" points="272.5,-941.5 272.5,-1019.5 399.5,-1019.5 399.5,-941.5 272.5,-941.5"/>
</g>
<!-- node_8&#45;&gt;node_17 -->
<!-- dt20_header -->
<g id="node7" class="node">
<title>dt20_header</title>
<polygon fill="#ccd5c4" stroke="transparent" points="27,-855 27,-874 327,-874 327,-855 27,-855"/>
<text text-anchor="start" x="169.5" y="-863" font-family="Helvetica" font-weight="bold" font-size="10.00" fill="#1c2915">dt4</text>
<text text-anchor="start" x="31" y="-843" font-family="Helvetica" font-size="10.00" fill="#1c2915">ps_suppkey := t5.ps_suppkey</text>
<polygon fill="#ede3d9" stroke="transparent" points="27,-817 27,-836 327,-836 327,-817 27,-817"/>
<text text-anchor="start" x="31" y="-824" font-family="Helvetica" font-size="10.00" fill="#1c2915">JOIN:</text>
<polygon fill="#ede3d9" stroke="transparent" points="27,-798 27,-817 327,-817 327,-798 27,-798"/>
<text text-anchor="start" x="31" y="-805" font-family="Helvetica" font-size="10.00" fill="#1c2915"> &#160;&#160;&#160;1. LEFT: t5.ps_partkey = dt6.__gk8, t5.ps_suppkey = dt6.__gk9</text>
<polygon fill="#ede3d9" stroke="transparent" points="27,-779 27,-798 327,-798 327,-779 27,-779"/>
<text text-anchor="start" x="31" y="-786" font-family="Helvetica" font-size="10.00" fill="#1c2915"> &#160;&#160;&#160;2. SEMI: t5.ps_partkey = dt10.p_partkey</text>
<polygon fill="#ede3d9" stroke="transparent" points="27,-760 27,-779 327,-779 327,-760 27,-760"/>
<text text-anchor="start" x="31" y="-767" font-family="Helvetica" font-size="10.00" fill="#1c2915">FILTER:</text>
<polygon fill="#ede3d9" stroke="transparent" points="27,-741 27,-760 327,-760 327,-741 27,-741"/>
<text text-anchor="start" x="31" y="-748" font-family="Helvetica" font-size="10.00" fill="#1c2915"> &#160;&#160;&#160;dt4.__mark12</text>
<polygon fill="#ede3d9" stroke="transparent" points="27,-722 27,-741 327,-741 327,-722 27,-722"/>
<text text-anchor="start" x="31" y="-729" font-family="Helvetica" font-size="10.00" fill="#1c2915"> &#160;&#160;&#160;lt(dt6.expr, __cast(t5.ps_availqty as DOUBLE))</text>
</g>
<!-- node_8&#45;&gt;dt20_header -->
<!-- dt20_dt6 -->
<g id="node9" class="node">
<title>dt20_dt6</title>
<path fill="#af9d89" stroke="#1c2915" d="M198.33,-664C198.33,-664 187.67,-664 187.67,-664 182.83,-664 178,-659.17 178,-654.33 178,-654.33 178,-644.67 178,-644.67 178,-639.83 182.83,-635 187.67,-635 187.67,-635 198.33,-635 198.33,-635 203.17,-635 208,-639.83 208,-644.67 208,-644.67 208,-654.33 208,-654.33 208,-659.17 203.17,-664 198.33,-664"/>
<text text-anchor="middle" x="193" y="-647" font-family="Helvetica" font-size="10.00" fill="#1c2915">dt6</text>
</g>
<!-- dt20_header&#45;&gt;dt20_dt6 -->
<!-- dt20_t5 -->
<g id="node8" class="node">
<title>dt20_t5</title>
<ellipse fill="#af9d89" stroke="#1c2915" cx="42" cy="-649.5" rx="14.5" ry="14.5"/>
<text text-anchor="middle" x="42" y="-647" font-family="Helvetica" font-size="10.00" fill="#1c2915">t5</text>
</g>
<!-- dt20_t5&#45;&gt;dt20_dt6 -->
<g id="edge5" class="edge">
<title>dt20_t5&#45;&gt;dt20_dt6</title>
<path fill="none" stroke="#727a6b" stroke-width="2" d="M56.78,-648.58C85.74,-646.85 97.74,-646.92 167.3,-648.8"/>
<polygon fill="#727a6b" stroke="#727a6b" stroke-width="2" points="167.42,-652.3 177.51,-649.08 167.61,-645.31 167.42,-652.3"/>
<text text-anchor="middle" x="114.16" y="-650.38" font-family="Helvetica" font-size="9.00" fill="#1c2915">1</text>
</g>
<!-- dt20_dt10 -->
<g id="node10" class="node">
<title>dt20_dt10</title>
<path fill="#af9d89" stroke="#1c2915" d="M124.83,-664C124.83,-664 109.17,-664 109.17,-664 104.33,-664 99.5,-659.17 99.5,-654.33 99.5,-654.33 99.5,-644.67 99.5,-644.67 99.5,-639.83 104.33,-635 109.17,-635 109.17,-635 124.83,-635 124.83,-635 129.67,-635 134.5,-639.83 134.5,-644.67 134.5,-644.67 134.5,-654.33 134.5,-654.33 134.5,-659.17 129.67,-664 124.83,-664"/>
<text text-anchor="middle" x="117" y="-647" font-family="Helvetica" font-size="10.00" fill="#1c2915">dt10</text>
</g>
<!-- dt20_t5&#45;&gt;dt20_dt10 -->
<g id="edge6" class="edge">
<title>dt20_t5&#45;&gt;dt20_dt10</title>
<path fill="none" stroke="#727a6b" stroke-width="2" d="M56.6,-648.78C64.74,-648.49 72.19,-648.51 89.08,-648.87"/>
<polygon fill="#727a6b" stroke="#727a6b" stroke-width="2" points="89.42,-652.37 99.5,-649.09 89.57,-645.38 89.42,-652.37"/>
<text text-anchor="middle" x="74.72" y="-651.46" font-family="Helvetica" font-size="9.00" fill="#1c2915">2</text>
</g>
<!-- node_26 -->
<g id="node11" class="node">
<title>node_26</title>
<polygon fill="#ccd5c4" stroke="transparent" points="141,-520 141,-539 246,-539 246,-520 141,-520"/>
<text text-anchor="start" x="145" y="-528" font-family="Helvetica" font-weight="bold" font-size="10.00" fill="#1c2915">t5 (&quot;tiny&quot;.&quot;partsupp&quot;)</text>
<text text-anchor="start" x="145" y="-508" font-family="Helvetica" font-size="10.00" fill="#1c2915">ps_partkey</text>
<text text-anchor="start" x="145" y="-489" font-family="Helvetica" font-size="10.00" fill="#1c2915">ps_suppkey</text>
<text text-anchor="start" x="145" y="-470" font-family="Helvetica" font-size="10.00" fill="#1c2915">ps_availqty</text>
<polygon fill="none" stroke="#1c2915" points="139.5,-462 139.5,-540 246.5,-540 246.5,-462 139.5,-462"/>
</g>
<!-- dt20_dt6&#45;&gt;node_26 -->
<!-- dt30_header -->
<g id="node12" class="node">
<title>dt30_header</title>
<polygon fill="#ccd5c4" stroke="transparent" points="367,-558 367,-577 667,-577 667,-558 367,-558"/>
<text text-anchor="start" x="509.5" y="-566" font-family="Helvetica" font-weight="bold" font-size="10.00" fill="#1c2915">dt6</text>
<text text-anchor="start" x="371" y="-546" font-family="Helvetica" font-size="10.00" fill="#1c2915">__gk8 := t7.l_partkey</text>
<text text-anchor="start" x="371" y="-527" font-family="Helvetica" font-size="10.00" fill="#1c2915">__gk9 := t7.l_suppkey</text>
<text text-anchor="start" x="371" y="-508" font-family="Helvetica" font-size="10.00" fill="#1c2915">expr := multiply(dt6.sum, 0.5)</text>
<polygon fill="#ede3d9" stroke="transparent" points="367,-482 367,-501 667,-501 667,-482 367,-482"/>
<text text-anchor="start" x="371" y="-489" font-family="Helvetica" font-size="10.00" fill="#1c2915">GROUP BY:</text>
<polygon fill="#ede3d9" stroke="transparent" points="367,-463 367,-482 667,-482 667,-463 367,-463"/>
<text text-anchor="start" x="371" y="-470" font-family="Helvetica" font-size="10.00" fill="#1c2915"> &#160;&#160;&#160;t7.l_partkey</text>
<polygon fill="#ede3d9" stroke="transparent" points="367,-444 367,-463 667,-463 667,-444 367,-444"/>
<text text-anchor="start" x="371" y="-451" font-family="Helvetica" font-size="10.00" fill="#1c2915"> &#160;&#160;&#160;t7.l_suppkey</text>
<polygon fill="#ede3d9" stroke="transparent" points="367,-425 367,-444 667,-444 667,-425 367,-425"/>
<text text-anchor="start" x="371" y="-432" font-family="Helvetica" font-size="10.00" fill="#1c2915">AGG: sum := sum(t7.l_quantity)</text>
</g>
<!-- node_26&#45;&gt;dt30_header -->
<!-- dt78_header -->
<g id="node15" class="node">
<title>dt78_header</title>
<polygon fill="#ccd5c4" stroke="transparent" points="43,-348 43,-367 343,-367 343,-348 43,-348"/>
<text text-anchor="start" x="183" y="-356" font-family="Helvetica" font-weight="bold" font-size="10.00" fill="#1c2915">dt10</text>
<text text-anchor="start" x="47" y="-336" font-family="Helvetica" font-size="10.00" fill="#1c2915">p_partkey := t11.p_partkey</text>
</g>
<!-- node_26&#45;&gt;dt78_header -->
<!-- dt30_t7 -->
<g id="node13" class="node">
<title>dt30_t7</title>
<ellipse fill="#af9d89" stroke="#1c2915" cx="517" cy="-348" rx="14.5" ry="14.5"/>
<text text-anchor="middle" x="517" y="-345.5" font-family="Helvetica" font-size="10.00" fill="#1c2915">t7</text>
</g>
<!-- dt30_header&#45;&gt;dt30_t7 -->
<!-- node_47 -->
<g id="node14" class="node">
<title>node_47</title>
<polygon fill="#ccd5c4" stroke="transparent" points="445,-250.5 445,-269.5 590,-269.5 590,-250.5 445,-250.5"/>
<text text-anchor="start" x="470.5" y="-258.5" font-family="Helvetica" font-weight="bold" font-size="10.00" fill="#1c2915">t7 (&quot;tiny&quot;.&quot;lineitem&quot;)</text>
<text text-anchor="start" x="449" y="-238.5" font-family="Helvetica" font-size="10.00" fill="#1c2915">l_partkey</text>
<text text-anchor="start" x="449" y="-219.5" font-family="Helvetica" font-size="10.00" fill="#1c2915">l_suppkey</text>
<text text-anchor="start" x="449" y="-200.5" font-family="Helvetica" font-size="10.00" fill="#1c2915">l_quantity</text>
<text text-anchor="start" x="449" y="-181.5" font-family="Helvetica" font-size="10.00" fill="#1c2915">l_shipdate</text>
<polygon fill="#ede3d9" stroke="transparent" points="445,-155.5 445,-174.5 590,-174.5 590,-155.5 445,-155.5"/>
<text text-anchor="start" x="449" y="-162.5" font-family="Helvetica" font-size="10.00" fill="#1c2915">gte(t7.l_shipdate, &quot;1994&#45;01&#45;01&quot;)</text>
<polygon fill="#ede3d9" stroke="transparent" points="445,-136.5 445,-155.5 590,-155.5 590,-136.5 445,-136.5"/>
<text text-anchor="start" x="449" y="-143.5" font-family="Helvetica" font-size="10.00" fill="#1c2915">lt(t7.l_shipdate, &quot;1995&#45;01&#45;01&quot;)</text>
<polygon fill="none" stroke="#1c2915" points="443.5,-136 443.5,-271 590.5,-271 590.5,-136 443.5,-136"/>
</g>
<!-- dt30_t7&#45;&gt;node_47 -->
<!-- dt78_t11 -->
<g id="node16" class="node">
<title>dt78_t11</title>
<ellipse fill="#af9d89" stroke="#1c2915" cx="193" cy="-203.5" rx="14.5" ry="14.5"/>
<text text-anchor="middle" x="193" y="-201" font-family="Helvetica" font-size="10.00" fill="#1c2915">t11</text>
</g>
<!-- dt78_header&#45;&gt;dt78_t11 -->
<!-- node_88 -->
<g id="node17" class="node">
<title>node_88</title>
<polygon fill="#ccd5c4" stroke="transparent" points="130,-58 130,-77 257,-77 257,-58 130,-58"/>
<text text-anchor="start" x="154" y="-66" font-family="Helvetica" font-weight="bold" font-size="10.00" fill="#1c2915">t11 (&quot;tiny&quot;.&quot;part&quot;)</text>
<text text-anchor="start" x="134" y="-46" font-family="Helvetica" font-size="10.00" fill="#1c2915">p_partkey</text>
<text text-anchor="start" x="134" y="-27" font-family="Helvetica" font-size="10.00" fill="#1c2915">p_name</text>
<polygon fill="#ede3d9" stroke="transparent" points="130,-1 130,-20 257,-20 257,-1 130,-1"/>
<text text-anchor="start" x="134" y="-8" font-family="Helvetica" font-size="10.00" fill="#1c2915">like(t11.p_name, &quot;forest%&quot;)</text>
<polygon fill="none" stroke="#1c2915" points="128.5,0 128.5,-78 257.5,-78 257.5,0 128.5,0"/>
</g>
<!-- dt78_t11&#45;&gt;node_88 -->
</g>
</svg>
