<?xml version="1.0" encoding="UTF-8" standalone="no"?>
<!DOCTYPE svg PUBLIC "-//W3C//DTD SVG 1.1//EN"
 "http://www.w3.org/Graphics/SVG/1.1/DTD/svg11.dtd">
<!-- Generated by graphviz version 2.44.0 (0)
 -->
<!-- Title: multi_fragment_plan Pages: 1 -->
<svg width="486pt" height="1192pt"
 viewBox="0.00 0.00 486.00 1192.00" xmlns="http://www.w3.org/2000/svg" xmlns:xlink="http://www.w3.org/1999/xlink">
<g id="graph0" class="graph" transform="scale(1 1) rotate(0) translate(4 1188)">
<title>multi_fragment_plan</title>
<polygon fill="white" stroke="transparent" points="-4,4 -4,-1188 482,-1188 482,4 -4,4"/>
<!-- fragment_0 -->
<g id="node1" class="node">
<title>fragment_0</title>
<polygon fill="#ede3d9" stroke="transparent" points="25.5,-224.5 25.5,-255.5 198.5,-255.5 198.5,-224.5 25.5,-224.5"/>
<text text-anchor="start" x="33.5" y="-236.3" font-family="Helvetica" font-size="14.00">out: broadcast  ~1 rows    </text>
<polygon fill="#ccd5c4" stroke="transparent" points="25.5,-193.5 25.5,-224.5 198.5,-224.5 198.5,-193.5 25.5,-193.5"/>
<text text-anchor="start" x="33.5" y="-206.3" font-family="Helvetica" font-weight="bold" font-size="14.00">fragment9 — SOURCE</text>
<text text-anchor="start" x="33.5" y="-174.3" font-family="Helvetica" font-size="14.00">TableScan: tiny.nation</text>
<polygon fill="none" stroke="#1c2915" points="24,-162 24,-257 199,-257 199,-162 24,-162"/>
</g>
<!-- fragment_1 -->
<g id="node2" class="node">
<title>fragment_1</title>
<polygon fill="#ede3d9" stroke="transparent" points="1.5,-464 1.5,-495 221.5,-495 221.5,-464 1.5,-464"/>
<text text-anchor="start" x="9.5" y="-475.8" font-family="Helvetica" font-size="14.00">out: broadcast  ~4 rows    </text>
<polygon fill="#ccd5c4" stroke="transparent" points="1.5,-433 1.5,-464 221.5,-464 221.5,-433 1.5,-433"/>
<text text-anchor="start" x="9.5" y="-445.8" font-family="Helvetica" font-weight="bold" font-size="14.00">fragment8 — SOURCE</text>
<text text-anchor="start" x="9.5" y="-413.8" font-family="Helvetica" font-size="14.00">HashJoin</text>
<text text-anchor="start" x="9.5" y="-382.8" font-family="Helvetica" font-size="14.00">  TableScan: tiny.supplier</text>
<text text-anchor="start" x="9.5" y="-351.8" font-family="Helvetica" font-size="14.00">  Exchange: fragment9, broadcast</text>
<polygon fill="none" stroke="#1c2915" points="0.5,-339.5 0.5,-496.5 222.5,-496.5 222.5,-339.5 0.5,-339.5"/>
</g>
<!-- fragment_0&#45;&gt;fragment_1 -->
<g id="edge1" class="edge">
<title>fragment_0&#45;&gt;fragment_1</title>
<path fill="none" stroke="#727a6b" d="M111.5,-257.1C111.5,-278.43 111.5,-304.43 111.5,-329.21"/>
<polygon fill="#727a6b" stroke="#727a6b" points="108,-329.37 111.5,-339.37 115,-329.37 108,-329.37"/>
</g>
<!-- fragment_2 -->
<g id="node3" class="node">
<title>fragment_2</title>
<polygon fill="#ede3d9" stroke="transparent" points="1.5,-704 1.5,-735 228.5,-735 228.5,-704 1.5,-704"/>
<text text-anchor="start" x="9.5" y="-715.8" font-family="Helvetica" font-size="14.00">out: hash[ps_partkey]  ~3 rows    </text>
<polygon fill="#ccd5c4" stroke="transparent" points="1.5,-673 1.5,-704 228.5,-704 228.5,-673 1.5,-673"/>
<text text-anchor="start" x="9.5" y="-685.8" font-family="Helvetica" font-weight="bold" font-size="14.00">fragment7 — SOURCE</text>
<text text-anchor="start" x="9.5" y="-653.8" font-family="Helvetica" font-size="14.00">Aggregation</text>
<text text-anchor="start" x="9.5" y="-622.8" font-family="Helvetica" font-size="14.00">  HashJoin</text>
<text text-anchor="start" x="9.5" y="-591.8" font-family="Helvetica" font-size="14.00">    TableScan: tiny.partsupp</text>
<text text-anchor="start" x="9.5" y="-560.8" font-family="Helvetica" font-size="14.00">    Exchange: fragment8, broadcast</text>
<polygon fill="none" stroke="#1c2915" points="0,-548 0,-736 229,-736 229,-548 0,-548"/>
</g>
<!-- fragment_1&#45;&gt;fragment_2 -->
<g id="edge2" class="edge">
<title>fragment_1&#45;&gt;fragment_2</title>
<path fill="none" stroke="#727a6b" d="M112.55,-496.64C112.73,-509.93 112.92,-523.91 113.1,-537.73"/>
<polygon fill="#727a6b" stroke="#727a6b" points="109.61,-537.8 113.24,-547.76 116.6,-537.71 109.61,-537.8"/>
</g>
<!-- fragment_7 -->
<g id="node8" class="node">
<title>fragment_7</title>
<polygon fill="#ede3d9" stroke="transparent" points="109.5,-1052 109.5,-1083 359.5,-1083 359.5,-1052 109.5,-1052"/>
<text text-anchor="start" x="117.5" y="-1063.8" font-family="Helvetica" font-size="14.00">out: gather  ~1 rows    </text>
<polygon fill="#ccd5c4" stroke="transparent" points="109.5,-1021 109.5,-1052 359.5,-1052 359.5,-1021 109.5,-1021"/>
<text text-anchor="start" x="117.5" y="-1033.8" font-family="Helvetica" font-weight="bold" font-size="14.00">fragment6 — FIXED × 4</text>
<text text-anchor="start" x="117.5" y="-1001.8" font-family="Helvetica" font-size="14.00">LocalMerge</text>
<text text-anchor="start" x="117.5" y="-970.8" font-family="Helvetica" font-size="14.00">  OrderBy</text>
<text text-anchor="start" x="117.5" y="-939.8" font-family="Helvetica" font-size="14.00">    Filter</text>
<text text-anchor="start" x="117.5" y="-908.8" font-family="Helvetica" font-size="14.00">      NestedLoopJoin</text>
<text text-anchor="start" x="117.5" y="-877.8" font-family="Helvetica" font-size="14.00">        Aggregation</text>
<text text-anchor="start" x="117.5" y="-846.8" font-family="Helvetica" font-size="14.00">          LocalPartition</text>
<text text-anchor="start" x="117.5" y="-815.8" font-family="Helvetica" font-size="14.00">            Exchange: fragment7, hash</text>
<text text-anchor="start" x="117.5" y="-784.8" font-family="Helvetica" font-size="14.00">        Exchange: fragment10, broadcast</text>
<polygon fill="none" stroke="#1c2915" points="108.5,-772 108.5,-1084 360.5,-1084 360.5,-772 108.5,-772"/>
</g>
<!-- fragment_2&#45;&gt;fragment_7 -->
<g id="edge6" class="edge">
<title>fragment_2&#45;&gt;fragment_7</title>
<path fill="none" stroke="#727a6b" d="M153.96,-736.39C157.56,-744.9 161.27,-753.69 165.03,-762.59"/>
<polygon fill="#727a6b" stroke="#727a6b" points="161.85,-764.06 168.97,-771.91 168.3,-761.34 161.85,-764.06"/>
</g>
<!-- fragment_3 -->
<g id="node4" class="node">
<title>fragment_3</title>
<polygon fill="#ede3d9" stroke="transparent" points="273.5,-62.5 273.5,-93.5 446.5,-93.5 446.5,-62.5 273.5,-62.5"/>
<text text-anchor="start" x="281.5" y="-74.3" font-family="Helvetica" font-size="14.00">out: broadcast  ~1 rows    </text>
<polygon fill="#ccd5c4" stroke="transparent" points="273.5,-31.5 273.5,-62.5 446.5,-62.5 446.5,-31.5 273.5,-31.5"/>
<text text-anchor="start" x="281.5" y="-44.3" font-family="Helvetica" font-weight="bold" font-size="14.00">fragment13 — SOURCE</text>
<text text-anchor="start" x="281.5" y="-12.3" font-family="Helvetica" font-size="14.00">TableScan: tiny.nation</text>
<polygon fill="none" stroke="#1c2915" points="272,0 272,-95 447,-95 447,0 272,0"/>
</g>
<!-- fragment_4 -->
<g id="node5" class="node">
<title>fragment_4</title>
<polygon fill="#ede3d9" stroke="transparent" points="246.5,-255.5 246.5,-286.5 473.5,-286.5 473.5,-255.5 246.5,-255.5"/>
<text text-anchor="start" x="254.5" y="-267.3" font-family="Helvetica" font-size="14.00">out: broadcast  ~4 rows    </text>
<polygon fill="#ccd5c4" stroke="transparent" points="246.5,-224.5 246.5,-255.5 473.5,-255.5 473.5,-224.5 246.5,-224.5"/>
<text text-anchor="start" x="254.5" y="-237.3" font-family="Helvetica" font-weight="bold" font-size="14.00">fragment12 — SOURCE</text>
<text text-anchor="start" x="254.5" y="-205.3" font-family="Helvetica" font-size="14.00">HashJoin</text>
<text text-anchor="start" x="254.5" y="-174.3" font-family="Helvetica" font-size="14.00">  TableScan: tiny.supplier</text>
<text text-anchor="start" x="254.5" y="-143.3" font-family="Helvetica" font-size="14.00">  Exchange: fragment13, broadcast</text>
<polygon fill="none" stroke="#1c2915" points="245,-131 245,-288 474,-288 474,-131 245,-131"/>
</g>
<!-- fragment_3&#45;&gt;fragment_4 -->
<g id="edge3" class="edge">
<title>fragment_3&#45;&gt;fragment_4</title>
<path fill="none" stroke="#727a6b" d="M359.5,-95.21C359.5,-103.23 359.5,-111.8 359.5,-120.49"/>
<polygon fill="#727a6b" stroke="#727a6b" points="356,-120.73 359.5,-130.73 363,-120.73 356,-120.73"/>
</g>
<!-- fragment_5 -->
<g id="node6" class="node">
<title>fragment_5</title>
<polygon fill="#ede3d9" stroke="transparent" points="242.5,-480 242.5,-511 477.5,-511 477.5,-480 242.5,-480"/>
<text text-anchor="start" x="250.5" y="-491.8" font-family="Helvetica" font-size="14.00">out: gather  ~1 rows    </text>
<polygon fill="#ccd5c4" stroke="transparent" points="242.5,-449 242.5,-480 477.5,-480 477.5,-449 242.5,-449"/>
<text text-anchor="start" x="250.5" y="-461.8" font-family="Helvetica" font-weight="bold" font-size="14.00">fragment11 — SOURCE</text>
<text text-anchor="start" x="250.5" y="-429.8" font-family="Helvetica" font-size="14.00">Aggregation</text>
<text text-anchor="start" x="250.5" y="-398.8" font-family="Helvetica" font-size="14.00">  HashJoin</text>
<text text-anchor="start" x="250.5" y="-367.8" font-family="Helvetica" font-size="14.00">    TableScan: tiny.partsupp</text>
<text text-anchor="start" x="250.5" y="-336.8" font-family="Helvetica" font-size="14.00">    Exchange: fragment12, broadcast</text>
<polygon fill="none" stroke="#1c2915" points="241,-324 241,-512 478,-512 478,-324 241,-324"/>
</g>
<!-- fragment_4&#45;&gt;fragment_5 -->
<g id="edge4" class="edge">
<title>fragment_4&#45;&gt;fragment_5</title>
<path fill="none" stroke="#727a6b" d="M359.5,-288.27C359.5,-296.66 359.5,-305.28 359.5,-313.9"/>
<polygon fill="#727a6b" stroke="#727a6b" points="356,-314 359.5,-324 363,-314 356,-314"/>
</g>
<!-- fragment_6 -->
<g id="node7" class="node">
<title>fragment_6</title>
<polygon fill="#ede3d9" stroke="transparent" points="250.5,-688 250.5,-719 464.5,-719 464.5,-688 250.5,-688"/>
<text text-anchor="start" x="258.5" y="-699.8" font-family="Helvetica" font-size="14.00">out: broadcast  ~1 rows    </text>
<polygon fill="#ccd5c4" stroke="transparent" points="250.5,-657 250.5,-688 464.5,-688 464.5,-657 250.5,-657"/>
<text text-anchor="start" x="258.5" y="-669.8" font-family="Helvetica" font-weight="bold" font-size="14.00">fragment10 — SINGLE</text>
<text text-anchor="start" x="258.5" y="-637.8" font-family="Helvetica" font-size="14.00">Aggregation</text>
<text text-anchor="start" x="258.5" y="-606.8" font-family="Helvetica" font-size="14.00">  LocalPartition</text>
<text text-anchor="start" x="258.5" y="-575.8" font-family="Helvetica" font-size="14.00">    Exchange: fragment11, gather</text>
<polygon fill="none" stroke="#1c2915" points="249.5,-563.5 249.5,-720.5 465.5,-720.5 465.5,-563.5 249.5,-563.5"/>
</g>
<!-- fragment_5&#45;&gt;fragment_6 -->
<g id="edge5" class="edge">
<title>fragment_5&#45;&gt;fragment_6</title>
<path fill="none" stroke="#727a6b" d="M358.66,-512.18C358.54,-525.7 358.41,-539.59 358.29,-553"/>
<polygon fill="#727a6b" stroke="#727a6b" points="354.79,-553.12 358.2,-563.16 361.79,-553.19 354.79,-553.12"/>
</g>
<!-- fragment_6&#45;&gt;fragment_7 -->
<g id="edge7" class="edge">
<title>fragment_6&#45;&gt;fragment_7</title>
<path fill="none" stroke="#727a6b" d="M323.89,-720.6C318.17,-733.81 312.05,-747.95 305.78,-762.42"/>
<polygon fill="#727a6b" stroke="#727a6b" points="302.41,-761.4 301.65,-771.96 308.83,-764.18 302.41,-761.4"/>
</g>
<!-- fragment_8 -->
<g id="node9" class="node">
<title>fragment_8</title>
<polygon fill="#ccd5c4" stroke="transparent" points="119.5,-1152 119.5,-1183 349.5,-1183 349.5,-1152 119.5,-1152"/>
<text text-anchor="start" x="127.5" y="-1164.8" font-family="Helvetica" font-weight="bold" font-size="14.00">fragment5 — SINGLE</text>
<text text-anchor="start" x="127.5" y="-1132.8" font-family="Helvetica" font-size="14.00">MergeExchange: fragment6, gather</text>
<polygon fill="none" stroke="#1c2915" points="118.5,-1120 118.5,-1184 350.5,-1184 350.5,-1120 118.5,-1120"/>
</g>
<!-- fragment_7&#45;&gt;fragment_8 -->
<g id="edge8" class="edge">
<title>fragment_7&#45;&gt;fragment_8</title>
<path fill="none" stroke="#727a6b" d="M234.5,-1084.09C234.5,-1093.14 234.5,-1101.73 234.5,-1109.54"/>
<polygon fill="#727a6b" stroke="#727a6b" points="231,-1109.69 234.5,-1119.69 238,-1109.69 231,-1109.69"/>
</g>
</g>
</svg>
