<?xml version="1.0" encoding="UTF-8" standalone="no"?>
<!DOCTYPE svg PUBLIC "-//W3C//DTD SVG 1.1//EN"
 "http://www.w3.org/Graphics/SVG/1.1/DTD/svg11.dtd">
<!-- Generated by graphviz version 2.44.0 (0)
 -->
<!-- Title: multi_fragment_plan Pages: 1 -->
<svg width="245pt" height="520pt"
 viewBox="0.00 0.00 245.00 520.00" xmlns="http://www.w3.org/2000/svg" xmlns:xlink="http://www.w3.org/1999/xlink">
<g id="graph0" class="graph" transform="scale(1 1) rotate(0) translate(4 516)">
<title>multi_fragment_plan</title>
<polygon fill="white" stroke="transparent" points="-4,4 -4,-516 241,-516 241,4 -4,4"/>
<!-- fragment_0 -->
<g id="node1" class="node">
<title>fragment_0</title>
<polygon fill="#ede3d9" stroke="transparent" points="32.5,-62.5 32.5,-93.5 205.5,-93.5 205.5,-62.5 32.5,-62.5"/>
<text text-anchor="start" x="40.5" y="-74.3" font-family="Helvetica" font-size="14.00">out: broadcast  ~1 rows    </text>
<polygon fill="#ccd5c4" stroke="transparent" points="32.5,-31.5 32.5,-62.5 205.5,-62.5 205.5,-31.5 32.5,-31.5"/>
<text text-anchor="start" x="40.5" y="-44.3" font-family="Helvetica" font-weight="bold" font-size="14.00">fragment3 — SOURCE</text>
<text text-anchor="start" x="40.5" y="-12.3" font-family="Helvetica" font-size="14.00">TableScan: tiny.lineitem</text>
<polygon fill="none" stroke="#1c2915" points="31,0 31,-95 206,-95 206,0 31,0"/>
</g>
<!-- fragment_1 -->
<g id="node2" class="node">
<title>fragment_1</title>
<polygon fill="#ede3d9" stroke="transparent" points="1.5,-317.5 1.5,-348.5 236.5,-348.5 236.5,-317.5 1.5,-317.5"/>
<text text-anchor="start" x="9.5" y="-329.3" font-family="Helvetica" font-size="14.00">out: gather  ~1 rows    </text>
<polygon fill="#ccd5c4" stroke="transparent" points="1.5,-286.5 1.5,-317.5 236.5,-317.5 236.5,-286.5 1.5,-286.5"/>
<text text-anchor="start" x="9.5" y="-299.3" font-family="Helvetica" font-weight="bold" font-size="14.00">fragment2 — SOURCE</text>
<text text-anchor="start" x="9.5" y="-267.3" font-family="Helvetica" font-size="14.00">Aggregation</text>
<text text-anchor="start" x="9.5" y="-236.3" font-family="Helvetica" font-size="14.00">  Filter</text>
<text text-anchor="start" x="9.5" y="-205.3" font-family="Helvetica" font-size="14.00">    HashJoin</text>
<text text-anchor="start" x="9.5" y="-174.3" font-family="Helvetica" font-size="14.00">      TableScan: tiny.part</text>
<text text-anchor="start" x="9.5" y="-143.3" font-family="Helvetica" font-size="14.00">      Exchange: fragment3, broadcast</text>
<polygon fill="none" stroke="#1c2915" points="0,-131 0,-350 237,-350 237,-131 0,-131"/>
</g>
<!-- fragment_0&#45;&gt;fragment_1 -->
<g id="edge1" class="edge">
<title>fragment_0&#45;&gt;fragment_1</title>
<path fill="none" stroke="#727a6b" d="M118.5,-95.22C118.5,-103.17 118.5,-111.73 118.5,-120.57"/>
<polygon fill="#727a6b" stroke="#727a6b" points="115,-120.66 118.5,-130.66 122,-120.66 115,-120.66"/>
</g>
<!-- fragment_2 -->
<g id="node3" class="node">
<title>fragment_2</title>
<polygon fill="#ccd5c4" stroke="transparent" points="15.5,-480 15.5,-511 221.5,-511 221.5,-480 15.5,-480"/>
<text text-anchor="start" x="23.5" y="-492.8" font-family="Helvetica" font-weight="bold" font-size="14.00">fragment1 — SINGLE</text>
<text text-anchor="start" x="23.5" y="-460.8" font-family="Helvetica" font-size="14.00">Aggregation</text>
<text text-anchor="start" x="23.5" y="-429.8" font-family="Helvetica" font-size="14.00">  LocalPartition</text>
<text text-anchor="start" x="23.5" y="-398.8" font-family="Helvetica" font-size="14.00">    Exchange: fragment2, gather</text>
<polygon fill="none" stroke="#1c2915" points="14.5,-386 14.5,-512 222.5,-512 222.5,-386 14.5,-386"/>
</g>
<!-- fragment_1&#45;&gt;fragment_2 -->
<g id="edge2" class="edge">
<title>fragment_1&#45;&gt;fragment_2</title>
<path fill="none" stroke="#727a6b" d="M118.5,-350.19C118.5,-358.9 118.5,-367.55 118.5,-375.9"/>
<polygon fill="#727a6b" stroke="#727a6b" points="115,-375.92 118.5,-385.92 122,-375.92 115,-375.92"/>
</g>
</g>
</svg>
