<?xml version="1.0" encoding="UTF-8" standalone="no"?>
<!DOCTYPE svg PUBLIC "-//W3C//DTD SVG 1.1//EN"
 "http://www.w3.org/Graphics/SVG/1.1/DTD/svg11.dtd">
<!-- Generated by graphviz version 2.44.0 (0)
 -->
<!-- Title: multi_fragment_plan Pages: 1 -->
<svg width="926pt" height="1509pt"
 viewBox="0.00 0.00 926.00 1509.00" xmlns="http://www.w3.org/2000/svg" xmlns:xlink="http://www.w3.org/1999/xlink">
<g id="graph0" class="graph" transform="scale(1 1) rotate(0) translate(4 1505)">
<title>multi_fragment_plan</title>
<polygon fill="white" stroke="transparent" points="-4,4 -4,-1505 922,-1505 922,4 -4,4"/>
<!-- fragment_0 -->
<g id="node1" class="node">
<title>fragment_0</title>
<polygon fill="#ede3d9" stroke="transparent" points="717.5,-417.5 717.5,-448.5 890.5,-448.5 890.5,-417.5 717.5,-417.5"/>
<text text-anchor="start" x="725.5" y="-429.3" font-family="Helvetica" font-size="14.00">out: broadcast  ~1 rows    </text>
<polygon fill="#ccd5c4" stroke="transparent" points="717.5,-386.5 717.5,-417.5 890.5,-417.5 890.5,-386.5 717.5,-386.5"/>
<text text-anchor="start" x="725.5" y="-399.3" font-family="Helvetica" font-weight="bold" font-size="14.00">fragment13 — SOURCE</text>
<text text-anchor="start" x="725.5" y="-367.3" font-family="Helvetica" font-size="14.00">TableScan: tiny.part</text>
<polygon fill="none" stroke="#1c2915" points="716,-355 716,-450 891,-450 891,-355 716,-355"/>
</g>
<!-- fragment_1 -->
<g id="node2" class="node">
<title>fragment_1</title>
<polygon fill="#ede3d9" stroke="transparent" points="690.5,-672.5 690.5,-703.5 917.5,-703.5 917.5,-672.5 690.5,-672.5"/>
<text text-anchor="start" x="698.5" y="-684.3" font-family="Helvetica" font-size="14.00">out: broadcast  ~3 rows    </text>
<polygon fill="#ccd5c4" stroke="transparent" points="690.5,-641.5 690.5,-672.5 917.5,-672.5 917.5,-641.5 690.5,-641.5"/>
<text text-anchor="start" x="698.5" y="-654.3" font-family="Helvetica" font-weight="bold" font-size="14.00">fragment12 — SOURCE</text>
<text text-anchor="start" x="698.5" y="-622.3" font-family="Helvetica" font-size="14.00">HashJoin</text>
<text text-anchor="start" x="698.5" y="-591.3" font-family="Helvetica" font-size="14.00">  TableScan: tiny.partsupp</text>
<text text-anchor="start" x="698.5" y="-560.3" font-family="Helvetica" font-size="14.00">  Exchange: fragment13, broadcast</text>
<polygon fill="none" stroke="#1c2915" points="689,-548 689,-705 918,-705 918,-548 689,-548"/>
</g>
<!-- fragment_0&#45;&gt;fragment_1 -->
<g id="edge1" class="edge">
<title>fragment_0&#45;&gt;fragment_1</title>
<path fill="none" stroke="#727a6b" d="M803.5,-450.04C803.5,-475.4 803.5,-507.63 803.5,-537.52"/>
<polygon fill="#727a6b" stroke="#727a6b" points="800,-537.56 803.5,-547.56 807,-537.56 800,-537.56"/>
</g>
<!-- fragment_4 -->
<g id="node5" class="node">
<title>fragment_4</title>
<polygon fill="#ede3d9" stroke="transparent" points="439.5,-958.5 439.5,-989.5 674.5,-989.5 674.5,-958.5 439.5,-958.5"/>
<text text-anchor="start" x="447.5" y="-970.3" font-family="Helvetica" font-size="14.00">out: broadcast  ~1 rows    </text>
<polygon fill="#ccd5c4" stroke="transparent" points="439.5,-927.5 439.5,-958.5 674.5,-958.5 674.5,-927.5 439.5,-927.5"/>
<text text-anchor="start" x="447.5" y="-940.3" font-family="Helvetica" font-weight="bold" font-size="14.00">fragment11 — SOURCE</text>
<text text-anchor="start" x="447.5" y="-908.3" font-family="Helvetica" font-size="14.00">HashJoin</text>
<text text-anchor="start" x="447.5" y="-877.3" font-family="Helvetica" font-size="14.00">  HashJoin</text>
<text text-anchor="start" x="447.5" y="-846.3" font-family="Helvetica" font-size="14.00">    TableScan: tiny.supplier</text>
<text text-anchor="start" x="447.5" y="-815.3" font-family="Helvetica" font-size="14.00">    Exchange: fragment12, broadcast</text>
<text text-anchor="start" x="447.5" y="-784.3" font-family="Helvetica" font-size="14.00">  Exchange: fragment14, broadcast</text>
<polygon fill="none" stroke="#1c2915" points="438,-772 438,-991 675,-991 675,-772 438,-772"/>
</g>
<!-- fragment_1&#45;&gt;fragment_4 -->
<g id="edge3" class="edge">
<title>fragment_1&#45;&gt;fragment_4</title>
<path fill="none" stroke="#727a6b" d="M727.71,-705.13C709.4,-723.89 689.43,-744.34 669.81,-764.44"/>
<polygon fill="#727a6b" stroke="#727a6b" points="667.08,-762.22 662.6,-771.82 672.09,-767.11 667.08,-762.22"/>
</g>
<!-- fragment_2 -->
<g id="node3" class="node">
<title>fragment_2</title>
<polygon fill="#ede3d9" stroke="transparent" points="470.5,-417.5 470.5,-448.5 643.5,-448.5 643.5,-417.5 470.5,-417.5"/>
<text text-anchor="start" x="478.5" y="-429.3" font-family="Helvetica" font-size="14.00">out: broadcast  ~1 rows    </text>
<polygon fill="#ccd5c4" stroke="transparent" points="470.5,-386.5 470.5,-417.5 643.5,-417.5 643.5,-386.5 470.5,-386.5"/>
<text text-anchor="start" x="478.5" y="-399.3" font-family="Helvetica" font-weight="bold" font-size="14.00">fragment15 — SOURCE</text>
<text text-anchor="start" x="478.5" y="-367.3" font-family="Helvetica" font-size="14.00">TableScan: tiny.region</text>
<polygon fill="none" stroke="#1c2915" points="469,-355 469,-450 644,-450 644,-355 469,-355"/>
</g>
<!-- fragment_3 -->
<g id="node4" class="node">
<title>fragment_3</title>
<polygon fill="#ede3d9" stroke="transparent" points="443.5,-672.5 443.5,-703.5 670.5,-703.5 670.5,-672.5 443.5,-672.5"/>
<text text-anchor="start" x="451.5" y="-684.3" font-family="Helvetica" font-size="14.00">out: broadcast  ~5 rows    </text>
<polygon fill="#ccd5c4" stroke="transparent" points="443.5,-641.5 443.5,-672.5 670.5,-672.5 670.5,-641.5 443.5,-641.5"/>
<text text-anchor="start" x="451.5" y="-654.3" font-family="Helvetica" font-weight="bold" font-size="14.00">fragment14 — SOURCE</text>
<text text-anchor="start" x="451.5" y="-622.3" font-family="Helvetica" font-size="14.00">HashJoin</text>
<text text-anchor="start" x="451.5" y="-591.3" font-family="Helvetica" font-size="14.00">  TableScan: tiny.nation</text>
<text text-anchor="start" x="451.5" y="-560.3" font-family="Helvetica" font-size="14.00">  Exchange: fragment15, broadcast</text>
<polygon fill="none" stroke="#1c2915" points="442,-548 442,-705 671,-705 671,-548 442,-548"/>
</g>
<!-- fragment_2&#45;&gt;fragment_3 -->
<g id="edge2" class="edge">
<title>fragment_2&#45;&gt;fragment_3</title>
<path fill="none" stroke="#727a6b" d="M556.5,-450.04C556.5,-475.4 556.5,-507.63 556.5,-537.52"/>
<polygon fill="#727a6b" stroke="#727a6b" points="553,-537.56 556.5,-547.56 560,-537.56 553,-537.56"/>
</g>
<!-- fragment_3&#45;&gt;fragment_4 -->
<g id="edge4" class="edge">
<title>fragment_3&#45;&gt;fragment_4</title>
<path fill="none" stroke="#727a6b" d="M556.5,-705.13C556.5,-723.06 556.5,-742.55 556.5,-761.79"/>
<polygon fill="#727a6b" stroke="#727a6b" points="553,-761.82 556.5,-771.82 560,-761.82 553,-761.82"/>
</g>
<!-- fragment_12 -->
<g id="node13" class="node">
<title>fragment_12</title>
<polygon fill="#ede3d9" stroke="transparent" points="428.5,-1337.5 428.5,-1368.5 685.5,-1368.5 685.5,-1337.5 428.5,-1337.5"/>
<text text-anchor="start" x="436.5" y="-1349.3" font-family="Helvetica" font-size="14.00">out: gather  ~1 rows    </text>
<polygon fill="#ccd5c4" stroke="transparent" points="428.5,-1306.5 428.5,-1337.5 685.5,-1337.5 685.5,-1306.5 428.5,-1306.5"/>
<text text-anchor="start" x="436.5" y="-1319.3" font-family="Helvetica" font-weight="bold" font-size="14.00">fragment10 — SOURCE</text>
<text text-anchor="start" x="436.5" y="-1287.3" font-family="Helvetica" font-size="14.00">LocalMerge</text>
<text text-anchor="start" x="436.5" y="-1256.3" font-family="Helvetica" font-size="14.00">  TopN: 100</text>
<text text-anchor="start" x="436.5" y="-1225.3" font-family="Helvetica" font-size="14.00">    HashJoin</text>
<text text-anchor="start" x="436.5" y="-1194.3" font-family="Helvetica" font-size="14.00">      HashJoin</text>
<text text-anchor="start" x="436.5" y="-1163.3" font-family="Helvetica" font-size="14.00">        HashJoin</text>
<text text-anchor="start" x="436.5" y="-1132.3" font-family="Helvetica" font-size="14.00">          TableScan: tiny.nation</text>
<text text-anchor="start" x="436.5" y="-1101.3" font-family="Helvetica" font-size="14.00">          Exchange: fragment11, broadcast</text>
<text text-anchor="start" x="436.5" y="-1070.3" font-family="Helvetica" font-size="14.00">        Exchange: fragment16, broadcast</text>
<text text-anchor="start" x="436.5" y="-1039.3" font-family="Helvetica" font-size="14.00">      Exchange: fragment22, broadcast</text>
<polygon fill="none" stroke="#1c2915" points="427,-1027 427,-1370 686,-1370 686,-1027 427,-1027"/>
</g>
<!-- fragment_4&#45;&gt;fragment_12 -->
<g id="edge10" class="edge">
<title>fragment_4&#45;&gt;fragment_12</title>
<path fill="none" stroke="#727a6b" d="M556.5,-991.35C556.5,-999.65 556.5,-1008.16 556.5,-1016.77"/>
<polygon fill="#727a6b" stroke="#727a6b" points="553,-1016.9 556.5,-1026.9 560,-1016.9 553,-1016.9"/>
</g>
<!-- fragment_5 -->
<g id="node6" class="node">
<title>fragment_5</title>
<polygon fill="#ede3d9" stroke="transparent" points="248.5,-417.5 248.5,-448.5 421.5,-448.5 421.5,-417.5 248.5,-417.5"/>
<text text-anchor="start" x="256.5" y="-429.3" font-family="Helvetica" font-size="14.00">out: broadcast  ~1 rows    </text>
<polygon fill="#ccd5c4" stroke="transparent" points="248.5,-386.5 248.5,-417.5 421.5,-417.5 421.5,-386.5 248.5,-386.5"/>
<text text-anchor="start" x="256.5" y="-399.3" font-family="Helvetica" font-weight="bold" font-size="14.00">fragment18 — SOURCE</text>
<text text-anchor="start" x="256.5" y="-367.3" font-family="Helvetica" font-size="14.00">TableScan: tiny.part</text>
<polygon fill="none" stroke="#1c2915" points="247,-355 247,-450 422,-450 422,-355 247,-355"/>
</g>
<!-- fragment_9 -->
<g id="node10" class="node">
<title>fragment_9</title>
<polygon fill="#ede3d9" stroke="transparent" points="188.5,-703.5 188.5,-734.5 423.5,-734.5 423.5,-703.5 188.5,-703.5"/>
<text text-anchor="start" x="196.5" y="-715.3" font-family="Helvetica" font-size="14.00">out: hash[ps_partkey_0]  ~1 rows    </text>
<polygon fill="#ccd5c4" stroke="transparent" points="188.5,-672.5 188.5,-703.5 423.5,-703.5 423.5,-672.5 188.5,-672.5"/>
<text text-anchor="start" x="196.5" y="-685.3" font-family="Helvetica" font-weight="bold" font-size="14.00">fragment17 — SOURCE</text>
<text text-anchor="start" x="196.5" y="-653.3" font-family="Helvetica" font-size="14.00">HashJoin</text>
<text text-anchor="start" x="196.5" y="-622.3" font-family="Helvetica" font-size="14.00">  HashJoin</text>
<text text-anchor="start" x="196.5" y="-591.3" font-family="Helvetica" font-size="14.00">    TableScan: tiny.partsupp</text>
<text text-anchor="start" x="196.5" y="-560.3" font-family="Helvetica" font-size="14.00">    Exchange: fragment18, broadcast</text>
<text text-anchor="start" x="196.5" y="-529.3" font-family="Helvetica" font-size="14.00">  Exchange: fragment19, broadcast</text>
<polygon fill="none" stroke="#1c2915" points="187,-517 187,-736 424,-736 424,-517 187,-517"/>
</g>
<!-- fragment_5&#45;&gt;fragment_9 -->
<g id="edge7" class="edge">
<title>fragment_5&#45;&gt;fragment_9</title>
<path fill="none" stroke="#727a6b" d="M328.42,-450.04C326.22,-466.87 323.63,-486.72 320.99,-506.9"/>
<polygon fill="#727a6b" stroke="#727a6b" points="317.52,-506.46 319.7,-516.83 324.46,-507.37 317.52,-506.46"/>
</g>
<!-- fragment_6 -->
<g id="node7" class="node">
<title>fragment_6</title>
<polygon fill="#ede3d9" stroke="transparent" points="28.5,-62.5 28.5,-93.5 201.5,-93.5 201.5,-62.5 28.5,-62.5"/>
<text text-anchor="start" x="36.5" y="-74.3" font-family="Helvetica" font-size="14.00">out: broadcast  ~1 rows    </text>
<polygon fill="#ccd5c4" stroke="transparent" points="28.5,-31.5 28.5,-62.5 201.5,-62.5 201.5,-31.5 28.5,-31.5"/>
<text text-anchor="start" x="36.5" y="-44.3" font-family="Helvetica" font-weight="bold" font-size="14.00">fragment21 — SOURCE</text>
<text text-anchor="start" x="36.5" y="-12.3" font-family="Helvetica" font-size="14.00">TableScan: tiny.region</text>
<polygon fill="none" stroke="#1c2915" points="27,0 27,-95 202,-95 202,0 27,0"/>
</g>
<!-- fragment_7 -->
<g id="node8" class="node">
<title>fragment_7</title>
<polygon fill="#ede3d9" stroke="transparent" points="1.5,-255.5 1.5,-286.5 228.5,-286.5 228.5,-255.5 1.5,-255.5"/>
<text text-anchor="start" x="9.5" y="-267.3" font-family="Helvetica" font-size="14.00">out: broadcast  ~5 rows    </text>
<polygon fill="#ccd5c4" stroke="transparent" points="1.5,-224.5 1.5,-255.5 228.5,-255.5 228.5,-224.5 1.5,-224.5"/>
<text text-anchor="start" x="9.5" y="-237.3" font-family="Helvetica" font-weight="bold" font-size="14.00">fragment20 — SOURCE</text>
<text text-anchor="start" x="9.5" y="-205.3" font-family="Helvetica" font-size="14.00">HashJoin</text>
<text text-anchor="start" x="9.5" y="-174.3" font-family="Helvetica" font-size="14.00">  TableScan: tiny.nation</text>
<text text-anchor="start" x="9.5" y="-143.3" font-family="Helvetica" font-size="14.00">  Exchange: fragment21, broadcast</text>
<polygon fill="none" stroke="#1c2915" points="0,-131 0,-288 229,-288 229,-131 0,-131"/>
</g>
<!-- fragment_6&#45;&gt;fragment_7 -->
<g id="edge5" class="edge">
<title>fragment_6&#45;&gt;fragment_7</title>
<path fill="none" stroke="#727a6b" d="M114.5,-95.21C114.5,-103.23 114.5,-111.8 114.5,-120.49"/>
<polygon fill="#727a6b" stroke="#727a6b" points="111,-120.73 114.5,-130.73 118,-120.73 111,-120.73"/>
</g>
<!-- fragment_8 -->
<g id="node9" class="node">
<title>fragment_8</title>
<polygon fill="#ede3d9" stroke="transparent" points="1.5,-448.5 1.5,-479.5 228.5,-479.5 228.5,-448.5 1.5,-448.5"/>
<text text-anchor="start" x="9.5" y="-460.3" font-family="Helvetica" font-size="14.00">out: broadcast  ~20 rows    </text>
<polygon fill="#ccd5c4" stroke="transparent" points="1.5,-417.5 1.5,-448.5 228.5,-448.5 228.5,-417.5 1.5,-417.5"/>
<text text-anchor="start" x="9.5" y="-430.3" font-family="Helvetica" font-weight="bold" font-size="14.00">fragment19 — SOURCE</text>
<text text-anchor="start" x="9.5" y="-398.3" font-family="Helvetica" font-size="14.00">HashJoin</text>
<text text-anchor="start" x="9.5" y="-367.3" font-family="Helvetica" font-size="14.00">  TableScan: tiny.supplier</text>
<text text-anchor="start" x="9.5" y="-336.3" font-family="Helvetica" font-size="14.00">  Exchange: fragment20, broadcast</text>
<polygon fill="none" stroke="#1c2915" points="0,-324 0,-481 229,-481 229,-324 0,-324"/>
</g>
<!-- fragment_7&#45;&gt;fragment_8 -->
<g id="edge6" class="edge">
<title>fragment_7&#45;&gt;fragment_8</title>
<path fill="none" stroke="#727a6b" d="M114.5,-288.19C114.5,-296.65 114.5,-305.31 114.5,-313.88"/>
<polygon fill="#727a6b" stroke="#727a6b" points="111,-313.88 114.5,-323.88 118,-313.88 111,-313.88"/>
</g>
<!-- fragment_8&#45;&gt;fragment_9 -->
<g id="edge8" class="edge">
<title>fragment_8&#45;&gt;fragment_9</title>
<path fill="none" stroke="#727a6b" d="M181.3,-481.14C189.11,-490.22 197.2,-499.63 205.34,-509.08"/>
<polygon fill="#727a6b" stroke="#727a6b" points="202.7,-511.38 211.87,-516.67 208,-506.81 202.7,-511.38"/>
</g>
<!-- fragment_10 -->
<g id="node11" class="node">
<title>fragment_10</title>
<polygon fill="#ede3d9" stroke="transparent" points="209.5,-927.5 209.5,-958.5 414.5,-958.5 414.5,-927.5 209.5,-927.5"/>
<text text-anchor="start" x="217.5" y="-939.3" font-family="Helvetica" font-size="14.00">out: broadcast  ~1 rows    </text>
<polygon fill="#ccd5c4" stroke="transparent" points="209.5,-896.5 209.5,-927.5 414.5,-927.5 414.5,-896.5 209.5,-896.5"/>
<text text-anchor="start" x="217.5" y="-909.3" font-family="Helvetica" font-weight="bold" font-size="14.00">fragment16 — FIXED × 4</text>
<text text-anchor="start" x="217.5" y="-877.3" font-family="Helvetica" font-size="14.00">Aggregation</text>
<text text-anchor="start" x="217.5" y="-846.3" font-family="Helvetica" font-size="14.00">  LocalPartition</text>
<text text-anchor="start" x="217.5" y="-815.3" font-family="Helvetica" font-size="14.00">    Exchange: fragment17, hash</text>
<polygon fill="none" stroke="#1c2915" points="208,-803 208,-960 415,-960 415,-803 208,-803"/>
</g>
<!-- fragment_9&#45;&gt;fragment_10 -->
<g id="edge9" class="edge">
<title>fragment_9&#45;&gt;fragment_10</title>
<path fill="none" stroke="#727a6b" d="M308.08,-736.26C308.52,-755.05 308.98,-774.36 309.41,-792.51"/>
<polygon fill="#727a6b" stroke="#727a6b" points="305.92,-792.84 309.66,-802.75 312.92,-792.67 305.92,-792.84"/>
</g>
<!-- fragment_10&#45;&gt;fragment_12 -->
<g id="edge11" class="edge">
<title>fragment_10&#45;&gt;fragment_12</title>
<path fill="none" stroke="#727a6b" d="M372.06,-960.37C387.02,-979.59 403.64,-1000.97 420.62,-1022.79"/>
<polygon fill="#727a6b" stroke="#727a6b" points="417.98,-1025.11 426.88,-1030.85 423.51,-1020.81 417.98,-1025.11"/>
</g>
<!-- fragment_11 -->
<g id="node12" class="node">
<title>fragment_11</title>
<polygon fill="#ede3d9" stroke="transparent" points="694.5,-896.5 694.5,-927.5 867.5,-927.5 867.5,-896.5 694.5,-896.5"/>
<text text-anchor="start" x="702.5" y="-908.3" font-family="Helvetica" font-size="14.00">out: broadcast  ~1 rows    </text>
<polygon fill="#ccd5c4" stroke="transparent" points="694.5,-865.5 694.5,-896.5 867.5,-896.5 867.5,-865.5 694.5,-865.5"/>
<text text-anchor="start" x="702.5" y="-878.3" font-family="Helvetica" font-weight="bold" font-size="14.00">fragment22 — SOURCE</text>
<text text-anchor="start" x="702.5" y="-846.3" font-family="Helvetica" font-size="14.00">TableScan: tiny.region</text>
<polygon fill="none" stroke="#1c2915" points="693,-834 693,-929 868,-929 868,-834 693,-834"/>
</g>
<!-- fragment_11&#45;&gt;fragment_12 -->
<g id="edge12" class="edge">
<title>fragment_11&#45;&gt;fragment_12</title>
<path fill="none" stroke="#727a6b" d="M747.21,-929.32C729.79,-953.81 707.24,-985.52 683.78,-1018.51"/>
<polygon fill="#727a6b" stroke="#727a6b" points="680.75,-1016.74 677.8,-1026.92 686.45,-1020.8 680.75,-1016.74"/>
</g>
<!-- fragment_13 -->
<g id="node14" class="node">
<title>fragment_13</title>
<polygon fill="#ccd5c4" stroke="transparent" points="434.5,-1468.5 434.5,-1499.5 679.5,-1499.5 679.5,-1468.5 434.5,-1468.5"/>
<text text-anchor="start" x="442.5" y="-1481.3" font-family="Helvetica" font-weight="bold" font-size="14.00">fragment9 — SINGLE</text>
<text text-anchor="start" x="442.5" y="-1449.3" font-family="Helvetica" font-size="14.00">Limit: 100</text>
<text text-anchor="start" x="442.5" y="-1418.3" font-family="Helvetica" font-size="14.00">  MergeExchange: fragment10, gather</text>
<polygon fill="none" stroke="#1c2915" points="433,-1406 433,-1501 680,-1501 680,-1406 433,-1406"/>
</g>
<!-- fragment_12&#45;&gt;fragment_13 -->
<g id="edge13" class="edge">
<title>fragment_12&#45;&gt;fragment_13</title>
<path fill="none" stroke="#727a6b" d="M556.5,-1370.01C556.5,-1378.93 556.5,-1387.51 556.5,-1395.55"/>
<polygon fill="#727a6b" stroke="#727a6b" points="553,-1395.79 556.5,-1405.79 560,-1395.79 553,-1395.79"/>
</g>
</g>
</svg>
