<?xml version="1.0" encoding="UTF-8" standalone="no"?>
<!DOCTYPE svg PUBLIC "-//W3C//DTD SVG 1.1//EN"
 "http://www.w3.org/Graphics/SVG/1.1/DTD/svg11.dtd">
<!-- Generated by graphviz version 2.44.0 (0)
 -->
<!-- Title: multi_fragment_plan Pages: 1 -->
<svg width="718pt" height="1385pt"
 viewBox="0.00 0.00 717.50 1385.00" xmlns="http://www.w3.org/2000/svg" xmlns:xlink="http://www.w3.org/1999/xlink">
<g id="graph0" class="graph" transform="scale(1 1) rotate(0) translate(4 1381)">
<title>multi_fragment_plan</title>
<polygon fill="white" stroke="transparent" points="-4,4 -4,-1381 713.5,-1381 713.5,4 -4,4"/>
<!-- fragment_0 -->
<g id="node1" class="node">
<title>fragment_0</title>
<polygon fill="#ede3d9" stroke="transparent" points="11,-850 11,-881 184,-881 184,-850 11,-850"/>
<text text-anchor="start" x="19" y="-861.8" font-family="Helvetica" font-size="14.00">out: broadcast  ~1 rows    </text>
<polygon fill="#ccd5c4" stroke="transparent" points="11,-819 11,-850 184,-850 184,-819 11,-819"/>
<text text-anchor="start" x="19" y="-831.8" font-family="Helvetica" font-weight="bold" font-size="14.00">fragment5 — SOURCE</text>
<text text-anchor="start" x="19" y="-799.8" font-family="Helvetica" font-size="14.00">TableScan: tiny.nation</text>
<polygon fill="none" stroke="#1c2915" points="9.5,-787.5 9.5,-882.5 184.5,-882.5 184.5,-787.5 9.5,-787.5"/>
</g>
<!-- fragment_8 -->
<g id="node9" class="node">
<title>fragment_8</title>
<polygon fill="#ede3d9" stroke="transparent" points="82,-1244.5 82,-1275.5 324,-1275.5 324,-1244.5 82,-1244.5"/>
<text text-anchor="start" x="90" y="-1256.3" font-family="Helvetica" font-size="14.00">out: gather  ~4 rows    </text>
<polygon fill="#ccd5c4" stroke="transparent" points="82,-1213.5 82,-1244.5 324,-1244.5 324,-1213.5 82,-1213.5"/>
<text text-anchor="start" x="90" y="-1226.3" font-family="Helvetica" font-weight="bold" font-size="14.00">fragment4 — SOURCE</text>
<text text-anchor="start" x="90" y="-1194.3" font-family="Helvetica" font-size="14.00">LocalMerge</text>
<text text-anchor="start" x="90" y="-1163.3" font-family="Helvetica" font-size="14.00">  OrderBy</text>
<text text-anchor="start" x="90" y="-1132.3" font-family="Helvetica" font-size="14.00">    HashJoin</text>
<text text-anchor="start" x="90" y="-1101.3" font-family="Helvetica" font-size="14.00">      HashJoin</text>
<text text-anchor="start" x="90" y="-1070.3" font-family="Helvetica" font-size="14.00">        TableScan: tiny.supplier</text>
<text text-anchor="start" x="90" y="-1039.3" font-family="Helvetica" font-size="14.00">        Exchange: fragment5, broadcast</text>
<text text-anchor="start" x="90" y="-1008.3" font-family="Helvetica" font-size="14.00">      Exchange: fragment6, broadcast</text>
<polygon fill="none" stroke="#1c2915" points="81,-996 81,-1277 325,-1277 325,-996 81,-996"/>
</g>
<!-- fragment_0&#45;&gt;fragment_8 -->
<g id="edge7" class="edge">
<title>fragment_0&#45;&gt;fragment_8</title>
<path fill="none" stroke="#727a6b" d="M113.56,-882.8C123.55,-911.01 136.87,-948.66 150.19,-986.28"/>
<polygon fill="#727a6b" stroke="#727a6b" points="146.93,-987.57 153.57,-995.83 153.53,-985.24 146.93,-987.57"/>
</g>
<!-- fragment_1 -->
<g id="node2" class="node">
<title>fragment_1</title>
<polygon fill="#ede3d9" stroke="transparent" points="1,-610.5 1,-641.5 301,-641.5 301,-610.5 1,-610.5"/>
<text text-anchor="start" x="9" y="-622.3" font-family="Helvetica" font-size="14.00">out: hash[l_partkey, l_suppkey]  ~6,000 rows    </text>
<polygon fill="#ccd5c4" stroke="transparent" points="1,-579.5 1,-610.5 301,-610.5 301,-579.5 1,-579.5"/>
<text text-anchor="start" x="9" y="-592.3" font-family="Helvetica" font-weight="bold" font-size="14.00">fragment7 — SOURCE</text>
<text text-anchor="start" x="9" y="-560.3" font-family="Helvetica" font-size="14.00">TableScan: tiny.lineitem</text>
<polygon fill="none" stroke="#1c2915" points="0,-548 0,-643 302,-643 302,-548 0,-548"/>
</g>
<!-- fragment_7 -->
<g id="node8" class="node">
<title>fragment_7</title>
<polygon fill="#ede3d9" stroke="transparent" points="204,-928 204,-959 416,-959 416,-928 204,-928"/>
<text text-anchor="start" x="212" y="-939.8" font-family="Helvetica" font-size="14.00">out: broadcast  ~1 rows    </text>
<polygon fill="#ccd5c4" stroke="transparent" points="204,-897 204,-928 416,-928 416,-897 204,-897"/>
<text text-anchor="start" x="212" y="-909.8" font-family="Helvetica" font-weight="bold" font-size="14.00">fragment6 — FIXED × 4</text>
<text text-anchor="start" x="212" y="-877.8" font-family="Helvetica" font-size="14.00">Filter</text>
<text text-anchor="start" x="212" y="-846.8" font-family="Helvetica" font-size="14.00">  HashJoin</text>
<text text-anchor="start" x="212" y="-815.8" font-family="Helvetica" font-size="14.00">    Aggregation</text>
<text text-anchor="start" x="212" y="-784.8" font-family="Helvetica" font-size="14.00">      LocalPartition</text>
<text text-anchor="start" x="212" y="-753.8" font-family="Helvetica" font-size="14.00">        Exchange: fragment7, hash</text>
<text text-anchor="start" x="212" y="-722.8" font-family="Helvetica" font-size="14.00">    Exchange: fragment8, hash</text>
<polygon fill="none" stroke="#1c2915" points="203,-710 203,-960 417,-960 417,-710 203,-710"/>
</g>
<!-- fragment_1&#45;&gt;fragment_7 -->
<g id="edge5" class="edge">
<title>fragment_1&#45;&gt;fragment_7</title>
<path fill="none" stroke="#727a6b" d="M182.22,-643.14C193.64,-660.19 207.2,-680.44 221.14,-701.27"/>
<polygon fill="#727a6b" stroke="#727a6b" points="218.24,-703.23 226.71,-709.59 224.06,-699.33 218.24,-703.23"/>
</g>
<!-- fragment_2 -->
<g id="node3" class="node">
<title>fragment_2</title>
<polygon fill="#ede3d9" stroke="transparent" points="225,-417.5 225,-448.5 462,-448.5 462,-417.5 225,-417.5"/>
<text text-anchor="start" x="233" y="-429.3" font-family="Helvetica" font-size="14.00">out: hash[p_partkey]  ~1,600 rows    </text>
<polygon fill="#ccd5c4" stroke="transparent" points="225,-386.5 225,-417.5 462,-417.5 462,-386.5 225,-386.5"/>
<text text-anchor="start" x="233" y="-399.3" font-family="Helvetica" font-weight="bold" font-size="14.00">fragment9 — SOURCE</text>
<text text-anchor="start" x="233" y="-367.3" font-family="Helvetica" font-size="14.00">TableScan: tiny.part</text>
<polygon fill="none" stroke="#1c2915" points="223.5,-355 223.5,-450 462.5,-450 462.5,-355 223.5,-355"/>
</g>
<!-- fragment_6 -->
<g id="node7" class="node">
<title>fragment_6</title>
<polygon fill="#ede3d9" stroke="transparent" points="321,-641.5 321,-672.5 617,-672.5 617,-641.5 321,-641.5"/>
<text text-anchor="start" x="329" y="-653.3" font-family="Helvetica" font-size="14.00">out: hash[ps_partkey, ps_suppkey]  ~1 rows    </text>
<polygon fill="#ccd5c4" stroke="transparent" points="321,-610.5 321,-641.5 617,-641.5 617,-610.5 321,-610.5"/>
<text text-anchor="start" x="329" y="-623.3" font-family="Helvetica" font-weight="bold" font-size="14.00">fragment8 — FIXED × 4</text>
<text text-anchor="start" x="329" y="-591.3" font-family="Helvetica" font-size="14.00">HashJoin</text>
<text text-anchor="start" x="329" y="-560.3" font-family="Helvetica" font-size="14.00">  Exchange: fragment9, hash</text>
<text text-anchor="start" x="329" y="-529.3" font-family="Helvetica" font-size="14.00">  Exchange: fragment10, hash</text>
<polygon fill="none" stroke="#1c2915" points="320,-517 320,-674 618,-674 618,-517 320,-517"/>
</g>
<!-- fragment_2&#45;&gt;fragment_6 -->
<g id="edge3" class="edge">
<title>fragment_2&#45;&gt;fragment_6</title>
<path fill="none" stroke="#727a6b" d="M373.82,-450.22C385.36,-467.71 398.87,-488.19 412.02,-508.13"/>
<polygon fill="#727a6b" stroke="#727a6b" points="409.2,-510.21 417.63,-516.63 415.05,-506.36 409.2,-510.21"/>
</g>
<!-- fragment_3 -->
<g id="node4" class="node">
<title>fragment_3</title>
<polygon fill="#ede3d9" stroke="transparent" points="509,-62.5 509,-93.5 682,-93.5 682,-62.5 509,-62.5"/>
<text text-anchor="start" x="517" y="-74.3" font-family="Helvetica" font-size="14.00">out: broadcast  ~1 rows    </text>
<polygon fill="#ccd5c4" stroke="transparent" points="509,-31.5 509,-62.5 682,-62.5 682,-31.5 509,-31.5"/>
<text text-anchor="start" x="517" y="-44.3" font-family="Helvetica" font-weight="bold" font-size="14.00">fragment12 — SOURCE</text>
<text text-anchor="start" x="517" y="-12.3" font-family="Helvetica" font-size="14.00">TableScan: tiny.nation</text>
<polygon fill="none" stroke="#1c2915" points="507.5,0 507.5,-95 682.5,-95 682.5,0 507.5,0"/>
</g>
<!-- fragment_4 -->
<g id="node5" class="node">
<title>fragment_4</title>
<polygon fill="#ede3d9" stroke="transparent" points="482,-255.5 482,-286.5 709,-286.5 709,-255.5 482,-255.5"/>
<text text-anchor="start" x="490" y="-267.3" font-family="Helvetica" font-size="14.00">out: broadcast  ~4 rows    </text>
<polygon fill="#ccd5c4" stroke="transparent" points="482,-224.5 482,-255.5 709,-255.5 709,-224.5 482,-224.5"/>
<text text-anchor="start" x="490" y="-237.3" font-family="Helvetica" font-weight="bold" font-size="14.00">fragment11 — SOURCE</text>
<text text-anchor="start" x="490" y="-205.3" font-family="Helvetica" font-size="14.00">HashJoin</text>
<text text-anchor="start" x="490" y="-174.3" font-family="Helvetica" font-size="14.00">  TableScan: tiny.supplier</text>
<text text-anchor="start" x="490" y="-143.3" font-family="Helvetica" font-size="14.00">  Exchange: fragment12, broadcast</text>
<polygon fill="none" stroke="#1c2915" points="480.5,-131 480.5,-288 709.5,-288 709.5,-131 480.5,-131"/>
</g>
<!-- fragment_3&#45;&gt;fragment_4 -->
<g id="edge1" class="edge">
<title>fragment_3&#45;&gt;fragment_4</title>
<path fill="none" stroke="#727a6b" d="M595,-95.21C595,-103.23 595,-111.8 595,-120.49"/>
<polygon fill="#727a6b" stroke="#727a6b" points="591.5,-120.73 595,-130.73 598.5,-120.73 591.5,-120.73"/>
</g>
<!-- fragment_5 -->
<g id="node6" class="node">
<title>fragment_5</title>
<polygon fill="#ede3d9" stroke="transparent" points="482,-448.5 482,-479.5 709,-479.5 709,-448.5 482,-448.5"/>
<text text-anchor="start" x="490" y="-460.3" font-family="Helvetica" font-size="14.00">out: hash[ps_partkey]  ~4 rows    </text>
<polygon fill="#ccd5c4" stroke="transparent" points="482,-417.5 482,-448.5 709,-448.5 709,-417.5 482,-417.5"/>
<text text-anchor="start" x="490" y="-430.3" font-family="Helvetica" font-weight="bold" font-size="14.00">fragment10 — SOURCE</text>
<text text-anchor="start" x="490" y="-398.3" font-family="Helvetica" font-size="14.00">HashJoin</text>
<text text-anchor="start" x="490" y="-367.3" font-family="Helvetica" font-size="14.00">  TableScan: tiny.partsupp</text>
<text text-anchor="start" x="490" y="-336.3" font-family="Helvetica" font-size="14.00">  Exchange: fragment11, broadcast</text>
<polygon fill="none" stroke="#1c2915" points="480.5,-324 480.5,-481 709.5,-481 709.5,-324 480.5,-324"/>
</g>
<!-- fragment_4&#45;&gt;fragment_5 -->
<g id="edge2" class="edge">
<title>fragment_4&#45;&gt;fragment_5</title>
<path fill="none" stroke="#727a6b" d="M595,-288.19C595,-296.65 595,-305.31 595,-313.88"/>
<polygon fill="#727a6b" stroke="#727a6b" points="591.5,-313.88 595,-323.88 598.5,-313.88 591.5,-313.88"/>
</g>
<!-- fragment_5&#45;&gt;fragment_6 -->
<g id="edge4" class="edge">
<title>fragment_5&#45;&gt;fragment_6</title>
<path fill="none" stroke="#727a6b" d="M543.75,-481.19C537.86,-490.11 531.84,-499.25 525.88,-508.27"/>
<polygon fill="#727a6b" stroke="#727a6b" points="522.79,-506.61 520.2,-516.88 528.63,-510.46 522.79,-506.61"/>
</g>
<!-- fragment_6&#45;&gt;fragment_7 -->
<g id="edge6" class="edge">
<title>fragment_6&#45;&gt;fragment_7</title>
<path fill="none" stroke="#727a6b" d="M416.94,-674.27C411.11,-682.97 405.06,-692 398.94,-701.15"/>
<polygon fill="#727a6b" stroke="#727a6b" points="395.95,-699.32 393.3,-709.58 401.77,-703.21 395.95,-699.32"/>
</g>
<!-- fragment_7&#45;&gt;fragment_8 -->
<g id="edge8" class="edge">
<title>fragment_7&#45;&gt;fragment_8</title>
<path fill="none" stroke="#727a6b" d="M265.55,-960.41C262.47,-969.03 259.35,-977.76 256.24,-986.49"/>
<polygon fill="#727a6b" stroke="#727a6b" points="252.92,-985.36 252.86,-995.95 259.52,-987.71 252.92,-985.36"/>
</g>
<!-- fragment_9 -->
<g id="node10" class="node">
<title>fragment_9</title>
<polygon fill="#ccd5c4" stroke="transparent" points="88,-1345 88,-1376 318,-1376 318,-1345 88,-1345"/>
<text text-anchor="start" x="96" y="-1357.8" font-family="Helvetica" font-weight="bold" font-size="14.00">fragment3 — SINGLE</text>
<text text-anchor="start" x="96" y="-1325.8" font-family="Helvetica" font-size="14.00">MergeExchange: fragment4, gather</text>
<polygon fill="none" stroke="#1c2915" points="87,-1313 87,-1377 319,-1377 319,-1313 87,-1313"/>
</g>
<!-- fragment_8&#45;&gt;fragment_9 -->
<g id="edge9" class="edge">
<title>fragment_8&#45;&gt;fragment_9</title>
<path fill="none" stroke="#727a6b" d="M203,-1277.24C203,-1286.27 203,-1294.88 203,-1302.72"/>
<polygon fill="#727a6b" stroke="#727a6b" points="199.5,-1302.92 203,-1312.92 206.5,-1302.92 199.5,-1302.92"/>
</g>
</g>
</svg>
