<?xml version="1.0" encoding="UTF-8" standalone="no"?>
<!DOCTYPE svg PUBLIC "-//W3C//DTD SVG 1.1//EN"
 "http://www.w3.org/Graphics/SVG/1.1/DTD/svg11.dtd">
<!-- Generated by graphviz version 2.44.0 (0)
 -->
<!-- Title: multi_fragment_plan Pages: 1 -->
<svg width="846pt" height="1609pt"
 viewBox="0.00 0.00 846.00 1609.00" xmlns="http://www.w3.org/2000/svg" xmlns:xlink="http://www.w3.org/1999/xlink">
<g id="graph0" class="graph" transform="scale(1 1) rotate(0) translate(4 1605)">
<title>multi_fragment_plan</title>
<polygon fill="white" stroke="transparent" points="-4,4 -4,-1605 842,-1605 842,4 -4,4"/>
<!-- fragment_0 -->
<g id="node1" class="node">
<title>fragment_0</title>
<polygon fill="#ede3d9" stroke="transparent" points="1.5,-943 1.5,-974 264.5,-974 264.5,-943 1.5,-943"/>
<text text-anchor="start" x="9.5" y="-954.8" font-family="Helvetica" font-size="14.00">out: hash[l_orderkey_0]  ~60,000 rows    </text>
<polygon fill="#ccd5c4" stroke="transparent" points="1.5,-912 1.5,-943 264.5,-943 264.5,-912 1.5,-912"/>
<text text-anchor="start" x="9.5" y="-924.8" font-family="Helvetica" font-weight="bold" font-size="14.00">fragment8 — SOURCE</text>
<text text-anchor="start" x="9.5" y="-892.8" font-family="Helvetica" font-size="14.00">TableScan: tiny.lineitem</text>
<polygon fill="none" stroke="#1c2915" points="0,-880.5 0,-975.5 265,-975.5 265,-880.5 0,-880.5"/>
</g>
<!-- fragment_9 -->
<g id="node10" class="node">
<title>fragment_9</title>
<polygon fill="#ede3d9" stroke="transparent" points="162.5,-1182.5 162.5,-1213.5 361.5,-1213.5 361.5,-1182.5 162.5,-1182.5"/>
<text text-anchor="start" x="170.5" y="-1194.3" font-family="Helvetica" font-size="14.00">out: hash[s_name]  ~1 rows    </text>
<polygon fill="#ccd5c4" stroke="transparent" points="162.5,-1151.5 162.5,-1182.5 361.5,-1182.5 361.5,-1151.5 162.5,-1151.5"/>
<text text-anchor="start" x="170.5" y="-1164.3" font-family="Helvetica" font-weight="bold" font-size="14.00">fragment7 — FIXED × 4</text>
<text text-anchor="start" x="170.5" y="-1132.3" font-family="Helvetica" font-size="14.00">HashJoin</text>
<text text-anchor="start" x="170.5" y="-1101.3" font-family="Helvetica" font-size="14.00">  Exchange: fragment8, hash</text>
<text text-anchor="start" x="170.5" y="-1070.3" font-family="Helvetica" font-size="14.00">  Exchange: fragment9, hash</text>
<polygon fill="none" stroke="#1c2915" points="161,-1058 161,-1215 362,-1215 362,-1058 161,-1058"/>
</g>
<!-- fragment_0&#45;&gt;fragment_9 -->
<g id="edge8" class="edge">
<title>fragment_0&#45;&gt;fragment_9</title>
<path fill="none" stroke="#727a6b" d="M161.61,-975.6C175.23,-997.4 191.9,-1024.09 207.69,-1049.36"/>
<polygon fill="#727a6b" stroke="#727a6b" points="204.74,-1051.24 213,-1057.87 210.68,-1047.53 204.74,-1051.24"/>
</g>
<!-- fragment_1 -->
<g id="node2" class="node">
<title>fragment_1</title>
<polygon fill="#ede3d9" stroke="transparent" points="120.5,-703.5 120.5,-734.5 390.5,-734.5 390.5,-703.5 120.5,-703.5"/>
<text text-anchor="start" x="128.5" y="-715.3" font-family="Helvetica" font-size="14.00">out: hash[l_orderkey_16]  ~30,000 rows    </text>
<polygon fill="#ccd5c4" stroke="transparent" points="120.5,-672.5 120.5,-703.5 390.5,-703.5 390.5,-672.5 120.5,-672.5"/>
<text text-anchor="start" x="128.5" y="-685.3" font-family="Helvetica" font-weight="bold" font-size="14.00">fragment10 — SOURCE</text>
<text text-anchor="start" x="128.5" y="-653.3" font-family="Helvetica" font-size="14.00">TableScan: tiny.lineitem</text>
<polygon fill="none" stroke="#1c2915" points="119.5,-641 119.5,-736 391.5,-736 391.5,-641 119.5,-641"/>
</g>
<!-- fragment_8 -->
<g id="node9" class="node">
<title>fragment_8</title>
<polygon fill="#ede3d9" stroke="transparent" points="284.5,-990 284.5,-1021 498.5,-1021 498.5,-990 284.5,-990"/>
<text text-anchor="start" x="292.5" y="-1001.8" font-family="Helvetica" font-size="14.00">out: hash[l_orderkey]  ~1 rows    </text>
<polygon fill="#ccd5c4" stroke="transparent" points="284.5,-959 284.5,-990 498.5,-990 498.5,-959 284.5,-959"/>
<text text-anchor="start" x="292.5" y="-971.8" font-family="Helvetica" font-weight="bold" font-size="14.00">fragment9 — FIXED × 4</text>
<text text-anchor="start" x="292.5" y="-939.8" font-family="Helvetica" font-size="14.00">Filter</text>
<text text-anchor="start" x="292.5" y="-908.8" font-family="Helvetica" font-size="14.00">  HashJoin</text>
<text text-anchor="start" x="292.5" y="-877.8" font-family="Helvetica" font-size="14.00">    Exchange: fragment10, hash</text>
<text text-anchor="start" x="292.5" y="-846.8" font-family="Helvetica" font-size="14.00">    Exchange: fragment11, hash</text>
<polygon fill="none" stroke="#1c2915" points="283.5,-834 283.5,-1022 499.5,-1022 499.5,-834 283.5,-834"/>
</g>
<!-- fragment_1&#45;&gt;fragment_8 -->
<g id="edge6" class="edge">
<title>fragment_1&#45;&gt;fragment_8</title>
<path fill="none" stroke="#727a6b" d="M282.21,-736.14C296.77,-761.58 315.41,-794.12 333.15,-825.1"/>
<polygon fill="#727a6b" stroke="#727a6b" points="330.12,-826.85 338.12,-833.79 336.19,-823.37 330.12,-826.85"/>
</g>
<!-- fragment_2 -->
<g id="node3" class="node">
<title>fragment_2</title>
<polygon fill="#ede3d9" stroke="transparent" points="330.5,-448.5 330.5,-479.5 503.5,-479.5 503.5,-448.5 330.5,-448.5"/>
<text text-anchor="start" x="338.5" y="-460.3" font-family="Helvetica" font-size="14.00">out: broadcast  ~1 rows    </text>
<polygon fill="#ccd5c4" stroke="transparent" points="330.5,-417.5 330.5,-448.5 503.5,-448.5 503.5,-417.5 330.5,-417.5"/>
<text text-anchor="start" x="338.5" y="-430.3" font-family="Helvetica" font-weight="bold" font-size="14.00">fragment12 — SOURCE</text>
<text text-anchor="start" x="338.5" y="-398.3" font-family="Helvetica" font-size="14.00">TableScan: tiny.orders</text>
<polygon fill="none" stroke="#1c2915" points="329,-386 329,-481 504,-481 504,-386 329,-386"/>
</g>
<!-- fragment_7 -->
<g id="node8" class="node">
<title>fragment_7</title>
<polygon fill="#ede3d9" stroke="transparent" points="411.5,-765.5 411.5,-796.5 646.5,-796.5 646.5,-765.5 411.5,-765.5"/>
<text text-anchor="start" x="419.5" y="-777.3" font-family="Helvetica" font-size="14.00">out: hash[l_orderkey]  ~1 rows    </text>
<polygon fill="#ccd5c4" stroke="transparent" points="411.5,-734.5 411.5,-765.5 646.5,-765.5 646.5,-734.5 411.5,-734.5"/>
<text text-anchor="start" x="419.5" y="-747.3" font-family="Helvetica" font-weight="bold" font-size="14.00">fragment11 — SOURCE</text>
<text text-anchor="start" x="419.5" y="-715.3" font-family="Helvetica" font-size="14.00">HashJoin</text>
<text text-anchor="start" x="419.5" y="-684.3" font-family="Helvetica" font-size="14.00">  HashJoin</text>
<text text-anchor="start" x="419.5" y="-653.3" font-family="Helvetica" font-size="14.00">    TableScan: tiny.lineitem</text>
<text text-anchor="start" x="419.5" y="-622.3" font-family="Helvetica" font-size="14.00">    Exchange: fragment12, broadcast</text>
<text text-anchor="start" x="419.5" y="-591.3" font-family="Helvetica" font-size="14.00">  Exchange: fragment13, broadcast</text>
<polygon fill="none" stroke="#1c2915" points="410,-579 410,-798 647,-798 647,-579 410,-579"/>
</g>
<!-- fragment_2&#45;&gt;fragment_7 -->
<g id="edge4" class="edge">
<title>fragment_2&#45;&gt;fragment_7</title>
<path fill="none" stroke="#727a6b" d="M437.17,-481.2C448.25,-506.21 462.44,-538.27 476.31,-569.61"/>
<polygon fill="#727a6b" stroke="#727a6b" points="473.16,-571.14 480.41,-578.87 479.56,-568.3 473.16,-571.14"/>
</g>
<!-- fragment_3 -->
<g id="node4" class="node">
<title>fragment_3</title>
<polygon fill="#ede3d9" stroke="transparent" points="444.5,-62.5 444.5,-93.5 617.5,-93.5 617.5,-62.5 444.5,-62.5"/>
<text text-anchor="start" x="452.5" y="-74.3" font-family="Helvetica" font-size="14.00">out: broadcast  ~1 rows    </text>
<polygon fill="#ccd5c4" stroke="transparent" points="444.5,-31.5 444.5,-62.5 617.5,-62.5 617.5,-31.5 444.5,-31.5"/>
<text text-anchor="start" x="452.5" y="-44.3" font-family="Helvetica" font-weight="bold" font-size="14.00">fragment15 — SOURCE</text>
<text text-anchor="start" x="452.5" y="-12.3" font-family="Helvetica" font-size="14.00">TableScan: tiny.orders</text>
<polygon fill="none" stroke="#1c2915" points="443,0 443,-95 618,-95 618,0 443,0"/>
</g>
<!-- fragment_4 -->
<g id="node5" class="node">
<title>fragment_4</title>
<polygon fill="#ede3d9" stroke="transparent" points="417.5,-255.5 417.5,-286.5 644.5,-286.5 644.5,-255.5 417.5,-255.5"/>
<text text-anchor="start" x="425.5" y="-267.3" font-family="Helvetica" font-size="14.00">out: broadcast  ~2 rows    </text>
<polygon fill="#ccd5c4" stroke="transparent" points="417.5,-224.5 417.5,-255.5 644.5,-255.5 644.5,-224.5 417.5,-224.5"/>
<text text-anchor="start" x="425.5" y="-237.3" font-family="Helvetica" font-weight="bold" font-size="14.00">fragment14 — SOURCE</text>
<text text-anchor="start" x="425.5" y="-205.3" font-family="Helvetica" font-size="14.00">HashJoin</text>
<text text-anchor="start" x="425.5" y="-174.3" font-family="Helvetica" font-size="14.00">  TableScan: tiny.lineitem</text>
<text text-anchor="start" x="425.5" y="-143.3" font-family="Helvetica" font-size="14.00">  Exchange: fragment15, broadcast</text>
<polygon fill="none" stroke="#1c2915" points="416,-131 416,-288 645,-288 645,-131 416,-131"/>
</g>
<!-- fragment_3&#45;&gt;fragment_4 -->
<g id="edge1" class="edge">
<title>fragment_3&#45;&gt;fragment_4</title>
<path fill="none" stroke="#727a6b" d="M530.5,-95.21C530.5,-103.23 530.5,-111.8 530.5,-120.49"/>
<polygon fill="#727a6b" stroke="#727a6b" points="527,-120.73 530.5,-130.73 534,-120.73 527,-120.73"/>
</g>
<!-- fragment_6 -->
<g id="node7" class="node">
<title>fragment_6</title>
<polygon fill="#ede3d9" stroke="transparent" points="523.5,-510.5 523.5,-541.5 758.5,-541.5 758.5,-510.5 523.5,-510.5"/>
<text text-anchor="start" x="531.5" y="-522.3" font-family="Helvetica" font-size="14.00">out: broadcast  ~1 rows    </text>
<polygon fill="#ccd5c4" stroke="transparent" points="523.5,-479.5 523.5,-510.5 758.5,-510.5 758.5,-479.5 523.5,-479.5"/>
<text text-anchor="start" x="531.5" y="-492.3" font-family="Helvetica" font-weight="bold" font-size="14.00">fragment13 — SOURCE</text>
<text text-anchor="start" x="531.5" y="-460.3" font-family="Helvetica" font-size="14.00">HashJoin</text>
<text text-anchor="start" x="531.5" y="-429.3" font-family="Helvetica" font-size="14.00">  HashJoin</text>
<text text-anchor="start" x="531.5" y="-398.3" font-family="Helvetica" font-size="14.00">    TableScan: tiny.supplier</text>
<text text-anchor="start" x="531.5" y="-367.3" font-family="Helvetica" font-size="14.00">    Exchange: fragment14, broadcast</text>
<text text-anchor="start" x="531.5" y="-336.3" font-family="Helvetica" font-size="14.00">  Exchange: fragment16, broadcast</text>
<polygon fill="none" stroke="#1c2915" points="522,-324 522,-543 759,-543 759,-324 522,-324"/>
</g>
<!-- fragment_4&#45;&gt;fragment_6 -->
<g id="edge2" class="edge">
<title>fragment_4&#45;&gt;fragment_6</title>
<path fill="none" stroke="#727a6b" d="M568.97,-288.14C573.25,-296.77 577.67,-305.7 582.12,-314.68"/>
<polygon fill="#727a6b" stroke="#727a6b" points="579,-316.27 586.58,-323.67 585.27,-313.16 579,-316.27"/>
</g>
<!-- fragment_5 -->
<g id="node6" class="node">
<title>fragment_5</title>
<polygon fill="#ede3d9" stroke="transparent" points="664.5,-224.5 664.5,-255.5 837.5,-255.5 837.5,-224.5 664.5,-224.5"/>
<text text-anchor="start" x="672.5" y="-236.3" font-family="Helvetica" font-size="14.00">out: broadcast  ~1 rows    </text>
<polygon fill="#ccd5c4" stroke="transparent" points="664.5,-193.5 664.5,-224.5 837.5,-224.5 837.5,-193.5 664.5,-193.5"/>
<text text-anchor="start" x="672.5" y="-206.3" font-family="Helvetica" font-weight="bold" font-size="14.00">fragment16 — SOURCE</text>
<text text-anchor="start" x="672.5" y="-174.3" font-family="Helvetica" font-size="14.00">TableScan: tiny.nation</text>
<polygon fill="none" stroke="#1c2915" points="663,-162 663,-257 838,-257 838,-162 663,-162"/>
</g>
<!-- fragment_5&#45;&gt;fragment_6 -->
<g id="edge3" class="edge">
<title>fragment_5&#45;&gt;fragment_6</title>
<path fill="none" stroke="#727a6b" d="M727.44,-257.04C718.99,-274.09 709,-294.26 698.85,-314.73"/>
<polygon fill="#727a6b" stroke="#727a6b" points="695.65,-313.32 694.35,-323.83 701.92,-316.42 695.65,-313.32"/>
</g>
<!-- fragment_6&#45;&gt;fragment_7 -->
<g id="edge5" class="edge">
<title>fragment_6&#45;&gt;fragment_7</title>
<path fill="none" stroke="#727a6b" d="M592.35,-543.26C588.48,-552.01 584.56,-560.87 580.66,-569.68"/>
<polygon fill="#727a6b" stroke="#727a6b" points="577.46,-568.27 576.61,-578.83 583.86,-571.1 577.46,-568.27"/>
</g>
<!-- fragment_7&#45;&gt;fragment_8 -->
<g id="edge7" class="edge">
<title>fragment_7&#45;&gt;fragment_8</title>
<path fill="none" stroke="#727a6b" d="M465.81,-798.17C460.69,-807.06 455.52,-816.02 450.42,-824.86"/>
<polygon fill="#727a6b" stroke="#727a6b" points="447.32,-823.23 445.35,-833.64 453.38,-826.73 447.32,-823.23"/>
</g>
<!-- fragment_8&#45;&gt;fragment_9 -->
<g id="edge9" class="edge">
<title>fragment_8&#45;&gt;fragment_9</title>
<path fill="none" stroke="#727a6b" d="M332.78,-1022.28C327.12,-1031.27 321.39,-1040.36 315.78,-1049.28"/>
<polygon fill="#727a6b" stroke="#727a6b" points="312.8,-1047.44 310.43,-1057.77 318.72,-1051.17 312.8,-1047.44"/>
</g>
<!-- fragment_10 -->
<g id="node11" class="node">
<title>fragment_10</title>
<polygon fill="#ede3d9" stroke="transparent" points="155.5,-1437.5 155.5,-1468.5 367.5,-1468.5 367.5,-1437.5 155.5,-1437.5"/>
<text text-anchor="start" x="163.5" y="-1449.3" font-family="Helvetica" font-size="14.00">out: gather  ~1 rows    </text>
<polygon fill="#ccd5c4" stroke="transparent" points="155.5,-1406.5 155.5,-1437.5 367.5,-1437.5 367.5,-1406.5 155.5,-1406.5"/>
<text text-anchor="start" x="163.5" y="-1419.3" font-family="Helvetica" font-weight="bold" font-size="14.00">fragment6 — FIXED × 4</text>
<text text-anchor="start" x="163.5" y="-1387.3" font-family="Helvetica" font-size="14.00">LocalMerge</text>
<text text-anchor="start" x="163.5" y="-1356.3" font-family="Helvetica" font-size="14.00">  TopN: 100</text>
<text text-anchor="start" x="163.5" y="-1325.3" font-family="Helvetica" font-size="14.00">    Aggregation</text>
<text text-anchor="start" x="163.5" y="-1294.3" font-family="Helvetica" font-size="14.00">      LocalPartition</text>
<text text-anchor="start" x="163.5" y="-1263.3" font-family="Helvetica" font-size="14.00">        Exchange: fragment7, hash</text>
<polygon fill="none" stroke="#1c2915" points="154.5,-1251 154.5,-1470 368.5,-1470 368.5,-1251 154.5,-1251"/>
</g>
<!-- fragment_9&#45;&gt;fragment_10 -->
<g id="edge10" class="edge">
<title>fragment_9&#45;&gt;fragment_10</title>
<path fill="none" stroke="#727a6b" d="M261.5,-1215.14C261.5,-1223.41 261.5,-1231.95 261.5,-1240.56"/>
<polygon fill="#727a6b" stroke="#727a6b" points="258,-1240.67 261.5,-1250.67 265,-1240.67 258,-1240.67"/>
</g>
<!-- fragment_11 -->
<g id="node12" class="node">
<title>fragment_11</title>
<polygon fill="#ccd5c4" stroke="transparent" points="142.5,-1568.5 142.5,-1599.5 380.5,-1599.5 380.5,-1568.5 142.5,-1568.5"/>
<text text-anchor="start" x="150.5" y="-1581.3" font-family="Helvetica" font-weight="bold" font-size="14.00">fragment5 — SINGLE</text>
<text text-anchor="start" x="150.5" y="-1549.3" font-family="Helvetica" font-size="14.00">Limit: 100</text>
<text text-anchor="start" x="150.5" y="-1518.3" font-family="Helvetica" font-size="14.00">  MergeExchange: fragment6, gather</text>
<polygon fill="none" stroke="#1c2915" points="141.5,-1506 141.5,-1601 381.5,-1601 381.5,-1506 141.5,-1506"/>
</g>
<!-- fragment_10&#45;&gt;fragment_11 -->
<g id="edge11" class="edge">
<title>fragment_10&#45;&gt;fragment_11</title>
<path fill="none" stroke="#727a6b" d="M261.5,-1470.11C261.5,-1478.85 261.5,-1487.44 261.5,-1495.58"/>
<polygon fill="#727a6b" stroke="#727a6b" points="258,-1495.63 261.5,-1505.63 265,-1495.63 258,-1495.63"/>
</g>
</g>
</svg>
