<?xml version="1.0" encoding="UTF-8" standalone="no"?>
<!DOCTYPE svg PUBLIC "-//W3C//DTD SVG 1.1//EN"
 "http://www.w3.org/Graphics/SVG/1.1/DTD/svg11.dtd">
<!-- Generated by graphviz version 2.44.0 (0)
 -->
<!-- Title: multi_fragment_plan Pages: 1 -->
<svg width="639pt" height="1192pt"
 viewBox="0.00 0.00 638.50 1192.00" xmlns="http://www.w3.org/2000/svg" xmlns:xlink="http://www.w3.org/1999/xlink">
<g id="graph0" class="graph" transform="scale(1 1) rotate(0) translate(4 1188)">
<title>multi_fragment_plan</title>
<polygon fill="white" stroke="transparent" points="-4,4 -4,-1188 634.5,-1188 634.5,4 -4,4"/>
<!-- fragment_0 -->
<g id="node1" class="node">
<title>fragment_0</title>
<polygon fill="#ede3d9" stroke="transparent" points="1,-417.5 1,-448.5 189,-448.5 189,-417.5 1,-417.5"/>
<text text-anchor="start" x="9" y="-429.3" font-family="Helvetica" font-size="14.00">out: broadcast  ~100 rows    </text>
<polygon fill="#ccd5c4" stroke="transparent" points="1,-386.5 1,-417.5 189,-417.5 189,-386.5 1,-386.5"/>
<text text-anchor="start" x="9" y="-399.3" font-family="Helvetica" font-weight="bold" font-size="14.00">fragment10 — SOURCE</text>
<text text-anchor="start" x="9" y="-367.3" font-family="Helvetica" font-size="14.00">TableScan: tiny.supplier</text>
<polygon fill="none" stroke="#1c2915" points="0,-355 0,-450 190,-450 190,-355 0,-355"/>
</g>
<!-- fragment_5 -->
<g id="node6" class="node">
<title>fragment_5</title>
<polygon fill="#ede3d9" stroke="transparent" points="165,-797 165,-828 481,-828 481,-797 165,-797"/>
<text text-anchor="start" x="173" y="-808.8" font-family="Helvetica" font-size="14.00">out: hash[n_name, n_name_1, l_year]  ~1 rows    </text>
<polygon fill="#ccd5c4" stroke="transparent" points="165,-766 165,-797 481,-797 481,-766 165,-766"/>
<text text-anchor="start" x="173" y="-778.8" font-family="Helvetica" font-weight="bold" font-size="14.00">fragment9 — SOURCE</text>
<text text-anchor="start" x="173" y="-746.8" font-family="Helvetica" font-size="14.00">Filter</text>
<text text-anchor="start" x="173" y="-715.8" font-family="Helvetica" font-size="14.00">  HashJoin</text>
<text text-anchor="start" x="173" y="-684.8" font-family="Helvetica" font-size="14.00">    HashJoin</text>
<text text-anchor="start" x="173" y="-653.8" font-family="Helvetica" font-size="14.00">      HashJoin</text>
<text text-anchor="start" x="173" y="-622.8" font-family="Helvetica" font-size="14.00">        TableScan: tiny.lineitem</text>
<text text-anchor="start" x="173" y="-591.8" font-family="Helvetica" font-size="14.00">        Exchange: fragment10, broadcast</text>
<text text-anchor="start" x="173" y="-560.8" font-family="Helvetica" font-size="14.00">      Exchange: fragment11, broadcast</text>
<text text-anchor="start" x="173" y="-529.8" font-family="Helvetica" font-size="14.00">    Exchange: fragment14, broadcast</text>
<polygon fill="none" stroke="#1c2915" points="164,-517 164,-829 482,-829 482,-517 164,-517"/>
</g>
<!-- fragment_0&#45;&gt;fragment_5 -->
<g id="edge3" class="edge">
<title>fragment_0&#45;&gt;fragment_5</title>
<path fill="none" stroke="#727a6b" d="M134.71,-450.27C149.15,-467.26 166.39,-487.57 184.5,-508.9"/>
<polygon fill="#727a6b" stroke="#727a6b" points="182.07,-511.44 191.21,-516.8 187.4,-506.91 182.07,-511.44"/>
</g>
<!-- fragment_1 -->
<g id="node2" class="node">
<title>fragment_1</title>
<polygon fill="#ede3d9" stroke="transparent" points="237,-62.5 237,-93.5 410,-93.5 410,-62.5 237,-62.5"/>
<text text-anchor="start" x="245" y="-74.3" font-family="Helvetica" font-size="14.00">out: broadcast  ~2 rows    </text>
<polygon fill="#ccd5c4" stroke="transparent" points="237,-31.5 237,-62.5 410,-62.5 410,-31.5 237,-31.5"/>
<text text-anchor="start" x="245" y="-44.3" font-family="Helvetica" font-weight="bold" font-size="14.00">fragment13 — SOURCE</text>
<text text-anchor="start" x="245" y="-12.3" font-family="Helvetica" font-size="14.00">TableScan: tiny.nation</text>
<polygon fill="none" stroke="#1c2915" points="235.5,0 235.5,-95 410.5,-95 410.5,0 235.5,0"/>
</g>
<!-- fragment_2 -->
<g id="node3" class="node">
<title>fragment_2</title>
<polygon fill="#ede3d9" stroke="transparent" points="210,-255.5 210,-286.5 437,-286.5 437,-255.5 210,-255.5"/>
<text text-anchor="start" x="218" y="-267.3" font-family="Helvetica" font-size="14.00">out: broadcast  ~118 rows    </text>
<polygon fill="#ccd5c4" stroke="transparent" points="210,-224.5 210,-255.5 437,-255.5 437,-224.5 210,-224.5"/>
<text text-anchor="start" x="218" y="-237.3" font-family="Helvetica" font-weight="bold" font-size="14.00">fragment12 — SOURCE</text>
<text text-anchor="start" x="218" y="-205.3" font-family="Helvetica" font-size="14.00">HashJoin</text>
<text text-anchor="start" x="218" y="-174.3" font-family="Helvetica" font-size="14.00">  TableScan: tiny.customer</text>
<text text-anchor="start" x="218" y="-143.3" font-family="Helvetica" font-size="14.00">  Exchange: fragment13, broadcast</text>
<polygon fill="none" stroke="#1c2915" points="208.5,-131 208.5,-288 437.5,-288 437.5,-131 208.5,-131"/>
</g>
<!-- fragment_1&#45;&gt;fragment_2 -->
<g id="edge1" class="edge">
<title>fragment_1&#45;&gt;fragment_2</title>
<path fill="none" stroke="#727a6b" d="M323,-95.21C323,-103.23 323,-111.8 323,-120.49"/>
<polygon fill="#727a6b" stroke="#727a6b" points="319.5,-120.73 323,-130.73 326.5,-120.73 319.5,-120.73"/>
</g>
<!-- fragment_3 -->
<g id="node4" class="node">
<title>fragment_3</title>
<polygon fill="#ede3d9" stroke="transparent" points="210,-448.5 210,-479.5 437,-479.5 437,-448.5 210,-448.5"/>
<text text-anchor="start" x="218" y="-460.3" font-family="Helvetica" font-size="14.00">out: broadcast  ~118 rows    </text>
<polygon fill="#ccd5c4" stroke="transparent" points="210,-417.5 210,-448.5 437,-448.5 437,-417.5 210,-417.5"/>
<text text-anchor="start" x="218" y="-430.3" font-family="Helvetica" font-weight="bold" font-size="14.00">fragment11 — SOURCE</text>
<text text-anchor="start" x="218" y="-398.3" font-family="Helvetica" font-size="14.00">HashJoin</text>
<text text-anchor="start" x="218" y="-367.3" font-family="Helvetica" font-size="14.00">  TableScan: tiny.orders</text>
<text text-anchor="start" x="218" y="-336.3" font-family="Helvetica" font-size="14.00">  Exchange: fragment12, broadcast</text>
<polygon fill="none" stroke="#1c2915" points="208.5,-324 208.5,-481 437.5,-481 437.5,-324 208.5,-324"/>
</g>
<!-- fragment_2&#45;&gt;fragment_3 -->
<g id="edge2" class="edge">
<title>fragment_2&#45;&gt;fragment_3</title>
<path fill="none" stroke="#727a6b" d="M323,-288.19C323,-296.65 323,-305.31 323,-313.88"/>
<polygon fill="#727a6b" stroke="#727a6b" points="319.5,-313.88 323,-323.88 326.5,-313.88 319.5,-313.88"/>
</g>
<!-- fragment_3&#45;&gt;fragment_5 -->
<g id="edge4" class="edge">
<title>fragment_3&#45;&gt;fragment_5</title>
<path fill="none" stroke="#727a6b" d="M323,-481.16C323,-489.43 323,-498.05 323,-506.86"/>
<polygon fill="#727a6b" stroke="#727a6b" points="319.5,-506.88 323,-516.88 326.5,-506.88 319.5,-506.88"/>
</g>
<!-- fragment_4 -->
<g id="node5" class="node">
<title>fragment_4</title>
<polygon fill="#ede3d9" stroke="transparent" points="457,-417.5 457,-448.5 630,-448.5 630,-417.5 457,-417.5"/>
<text text-anchor="start" x="465" y="-429.3" font-family="Helvetica" font-size="14.00">out: broadcast  ~2 rows    </text>
<polygon fill="#ccd5c4" stroke="transparent" points="457,-386.5 457,-417.5 630,-417.5 630,-386.5 457,-386.5"/>
<text text-anchor="start" x="465" y="-399.3" font-family="Helvetica" font-weight="bold" font-size="14.00">fragment14 — SOURCE</text>
<text text-anchor="start" x="465" y="-367.3" font-family="Helvetica" font-size="14.00">TableScan: tiny.nation</text>
<polygon fill="none" stroke="#1c2915" points="455.5,-355 455.5,-450 630.5,-450 630.5,-355 455.5,-355"/>
</g>
<!-- fragment_4&#45;&gt;fragment_5 -->
<g id="edge5" class="edge">
<title>fragment_4&#45;&gt;fragment_5</title>
<path fill="none" stroke="#727a6b" d="M504.68,-450.27C490.75,-467.26 474.12,-487.57 456.64,-508.9"/>
<polygon fill="#727a6b" stroke="#727a6b" points="453.8,-506.84 450.17,-516.8 459.21,-511.28 453.8,-506.84"/>
</g>
<!-- fragment_6 -->
<g id="node7" class="node">
<title>fragment_6</title>
<polygon fill="#ede3d9" stroke="transparent" points="217,-1051.5 217,-1082.5 429,-1082.5 429,-1051.5 217,-1051.5"/>
<text text-anchor="start" x="225" y="-1063.3" font-family="Helvetica" font-size="14.00">out: gather  ~1 rows    </text>
<polygon fill="#ccd5c4" stroke="transparent" points="217,-1020.5 217,-1051.5 429,-1051.5 429,-1020.5 217,-1020.5"/>
<text text-anchor="start" x="225" y="-1033.3" font-family="Helvetica" font-weight="bold" font-size="14.00">fragment8 — FIXED × 4</text>
<text text-anchor="start" x="225" y="-1001.3" font-family="Helvetica" font-size="14.00">LocalMerge</text>
<text text-anchor="start" x="225" y="-970.3" font-family="Helvetica" font-size="14.00">  OrderBy</text>
<text text-anchor="start" x="225" y="-939.3" font-family="Helvetica" font-size="14.00">    Aggregation</text>
<text text-anchor="start" x="225" y="-908.3" font-family="Helvetica" font-size="14.00">      LocalPartition</text>
<text text-anchor="start" x="225" y="-877.3" font-family="Helvetica" font-size="14.00">        Exchange: fragment9, hash</text>
<polygon fill="none" stroke="#1c2915" points="216,-865 216,-1084 430,-1084 430,-865 216,-865"/>
</g>
<!-- fragment_5&#45;&gt;fragment_6 -->
<g id="edge6" class="edge">
<title>fragment_5&#45;&gt;fragment_6</title>
<path fill="none" stroke="#727a6b" d="M323,-829.01C323,-837.64 323,-846.24 323,-854.71"/>
<polygon fill="#727a6b" stroke="#727a6b" points="319.5,-854.95 323,-864.95 326.5,-854.95 319.5,-854.95"/>
</g>
<!-- fragment_7 -->
<g id="node8" class="node">
<title>fragment_7</title>
<polygon fill="#ccd5c4" stroke="transparent" points="208,-1152 208,-1183 438,-1183 438,-1152 208,-1152"/>
<text text-anchor="start" x="216" y="-1164.8" font-family="Helvetica" font-weight="bold" font-size="14.00">fragment7 — SINGLE</text>
<text text-anchor="start" x="216" y="-1132.8" font-family="Helvetica" font-size="14.00">MergeExchange: fragment8, gather</text>
<polygon fill="none" stroke="#1c2915" points="207,-1120 207,-1184 439,-1184 439,-1120 207,-1120"/>
</g>
<!-- fragment_6&#45;&gt;fragment_7 -->
<g id="edge7" class="edge">
<title>fragment_6&#45;&gt;fragment_7</title>
<path fill="none" stroke="#727a6b" d="M323,-1084.15C323,-1093.12 323,-1101.78 323,-1109.73"/>
<polygon fill="#727a6b" stroke="#727a6b" points="319.5,-1109.73 323,-1119.73 326.5,-1109.73 319.5,-1109.73"/>
</g>
</g>
</svg>
